<svg width="57" height="43" viewBox="0 0 57 43" fill="none" xmlns="http://www.w3.org/2000/svg">
    <g id="Frame 194">
        <path id="Vector" fill-rule="evenodd" clip-rule="evenodd"
              d="M4.57485 35.2052V39.7825C4.57887 40.2052 4.73371 40.3562 5.16605 40.3562H5.2505C5.42344 40.3562 5.60039 40.3401 5.71702 40.2213C5.83164 40.1045 5.84572 39.9334 5.84371 39.7805L5.84773 35.5273C5.84773 34.7644 5.79947 34.3256 5.52599 34.0518C5.33295 33.8586 5.06952 33.772 4.63116 33.772C3.57747 33.772 3.11497 34.2893 2.47551 35.4508L0.130851 39.704C0.040362 39.867 -0.0501267 40.0522 0.0363403 40.1971C0.116775 40.334 0.29373 40.3541 0.472697 40.3541H0.653674C1.05987 40.3541 1.23883 40.2414 1.45601 39.8549L2.1216 38.6351H3.50709C3.92937 38.6311 4.07817 38.4761 4.07817 38.0454V38.0152C4.07817 37.8421 4.06208 37.6649 3.94344 37.5482C3.82882 37.4335 3.65589 37.4174 3.50507 37.4214H2.78318L3.78458 35.5816C4.0842 35.024 4.24909 34.9757 4.3798 34.9777C4.49643 34.9777 4.57485 35.018 4.57485 35.2052Z"
              fill="#123274"/>
        <path id="Vector_2" fill-rule="evenodd" clip-rule="evenodd"
              d="M11.637 35.2193C10.8809 35.2193 10.4526 35.4971 10.2133 35.793C9.9137 35.4125 9.4331 35.2193 8.7836 35.2193C7.42023 35.2193 6.69833 35.9117 6.69833 37.2201V39.7704C6.69833 40.2012 6.84915 40.3541 7.28148 40.3541H7.40415C7.83447 40.3541 7.9873 40.2012 7.9873 39.7704V37.2201C7.9873 36.6927 8.10594 36.4431 8.7836 36.4431C9.45522 36.4431 9.56984 36.6826 9.56984 37.2201V39.7704C9.56984 40.2012 9.72267 40.3541 10.153 40.3541H10.2475C10.6778 40.3541 10.8307 40.2012 10.8307 39.7704V37.2201C10.8307 36.6927 10.9513 36.4431 11.637 36.4431C12.3066 36.4431 12.4233 36.6927 12.4233 37.2201V39.7704C12.4233 40.2012 12.5761 40.3541 13.0064 40.3541H13.1291C13.5594 40.3541 13.7122 40.2012 13.7122 39.7704V37.2201C13.7122 35.8735 13.0346 35.2193 11.637 35.2193Z"
              fill="#123274"/>
        <path id="Vector_3" fill-rule="evenodd" clip-rule="evenodd"
              d="M16.9215 35.2193C16.3927 35.2193 15.9764 35.3421 15.6788 35.5856V33.9653C15.6788 33.5345 15.526 33.3835 15.0957 33.3835H14.9811C14.5507 33.3835 14.3979 33.5345 14.3979 33.9653V38.2688C14.3979 39.6597 15.2445 40.4588 16.7205 40.4588C18.2688 40.4588 19.0531 39.7221 19.0531 38.2688V37.4496C19.0531 35.9902 18.3151 35.2193 16.9215 35.2193ZM16.7305 39.2249C15.8357 39.2249 15.6768 38.9089 15.6768 38.2487V37.4294C15.6768 36.7732 15.8397 36.4411 16.7305 36.4411C17.6093 36.4411 17.7641 36.7591 17.7641 37.4294V38.2487C17.7641 38.923 17.6153 39.2249 16.7305 39.2249Z"
              fill="#123274"/>
        <path id="Vector_4" fill-rule="evenodd" clip-rule="evenodd"
              d="M21.8622 35.2293C21.7778 35.2193 21.7255 35.2193 21.6531 35.2193C20.3943 35.2193 19.7026 35.8715 19.7026 37.0591V39.7704C19.7026 40.1991 19.8554 40.3541 20.2857 40.3541H20.4104C20.8407 40.3541 20.9935 40.2012 20.9935 39.7704V37.1255C20.9935 36.6525 21.0881 36.4431 21.6571 36.4431C21.7175 36.4411 21.7597 36.4431 21.824 36.4512C21.8964 36.4612 21.9567 36.4673 22.009 36.4673C22.3991 36.4673 22.3991 36.1291 22.3991 35.9661V35.8332C22.3971 35.4286 22.2624 35.2756 21.8622 35.2293Z"
              fill="#123274"/>
        <path id="Vector_5" fill-rule="evenodd" clip-rule="evenodd"
              d="M24.8805 35.2193C23.3482 35.2193 22.5379 35.9842 22.5379 37.4294V38.2487C22.5379 39.7362 23.304 40.4568 24.8805 40.4568C26.3987 40.4568 27.2031 39.6939 27.2031 38.2487V37.4294C27.2031 35.9439 26.443 35.2193 24.8805 35.2193ZM23.8268 37.4294C23.8268 36.7732 23.9897 36.4411 24.8805 36.4411C25.7593 36.4411 25.9141 36.7591 25.9141 37.4294V38.2487C25.9141 38.9089 25.7593 39.2249 24.8805 39.2249C23.9837 39.2249 23.8268 38.9089 23.8268 38.2487V37.4294Z"
              fill="#123274"/>
        <path id="Vector_6"
              d="M53.8771 39.9999C53.8751 40.0502 53.8852 40.0904 53.9033 40.1146C53.9214 40.1408 53.9576 40.1589 54.0058 40.173C54.1486 40.2152 54.2914 40.2535 54.4341 40.2857C54.5769 40.3199 54.7297 40.3461 54.8906 40.3662C55.0495 40.3863 55.2264 40.3964 55.4195 40.3964C55.7613 40.3984 56.0469 40.3622 56.2801 40.2897C56.5154 40.2172 56.6943 40.1025 56.817 39.9435C56.9397 39.7845 57 39.5751 57 39.3175C56.998 39.0961 56.9638 38.9129 56.8914 38.77C56.821 38.6271 56.7225 38.5063 56.5978 38.4117C56.4732 38.3151 56.3304 38.2265 56.1675 38.146L54.8464 37.4636C54.6453 37.359 54.4985 37.2382 54.408 37.0993C54.3175 36.9604 54.2713 36.7933 54.2733 36.5981C54.2733 36.4189 54.3135 36.276 54.3939 36.1694C54.4764 36.0627 54.599 35.9842 54.7639 35.9379C54.9308 35.8916 55.1379 35.8674 55.3913 35.8694C55.5783 35.8694 55.7472 35.8815 55.898 35.9016C56.0509 35.9218 56.1876 35.952 56.3143 35.9882C56.439 36.0224 56.5576 36.0647 56.6682 36.109C56.7185 36.1291 56.7527 36.1351 56.7708 36.1251C56.7889 36.113 56.7989 36.0828 56.7969 36.0325V35.9761C56.7989 35.9238 56.7909 35.8855 56.7728 35.8574C56.7547 35.8292 56.7185 35.805 56.6582 35.7829C56.5455 35.7386 56.4289 35.6983 56.3042 35.6621C56.1816 35.6279 56.0489 35.6017 55.9041 35.5816C55.7573 35.5615 55.5924 35.5514 55.4094 35.5514C55.0977 35.5494 54.8343 35.5856 54.6171 35.6561C54.4 35.7265 54.2351 35.8413 54.1205 35.9962C54.0078 36.1512 53.9515 36.3565 53.9495 36.6082C53.9515 36.8235 53.9837 37.0047 54.046 37.1456C54.1104 37.2905 54.2009 37.4113 54.3175 37.5099C54.4341 37.6086 54.5729 37.6991 54.7358 37.7817L56.0569 38.464C56.1916 38.5325 56.3063 38.609 56.3988 38.6915C56.4892 38.774 56.5596 38.8666 56.6059 38.9713C56.6521 39.0759 56.6763 39.2007 56.6763 39.3396C56.6763 39.5208 56.63 39.6657 56.5395 39.7764C56.447 39.8851 56.3123 39.9616 56.1293 40.0099C55.9483 40.0582 55.7251 40.0824 55.4557 40.0804C55.2325 40.0784 55.0253 40.0663 54.8363 40.0401C54.6493 40.0139 54.4864 39.9838 54.3457 39.9495C54.2049 39.9153 54.0903 39.8851 54.0038 39.859C53.9535 39.8449 53.9194 39.8429 53.9013 39.8569C53.8832 39.869 53.8731 39.9032 53.8751 39.9556V39.9999H53.8771ZM49.7187 39.9999C49.7167 40.0502 49.7267 40.0904 49.7448 40.1146C49.7629 40.1408 49.7991 40.1589 49.8474 40.173C49.9901 40.2152 50.1329 40.2535 50.2777 40.2857C50.4205 40.3199 50.5733 40.3461 50.7342 40.3662C50.893 40.3863 51.07 40.3964 51.263 40.3964C51.6028 40.3984 51.8904 40.3622 52.1237 40.2897C52.3589 40.2172 52.5379 40.1025 52.6586 39.9435C52.7812 39.7845 52.8415 39.5751 52.8415 39.3175C52.8395 39.0961 52.8053 38.9129 52.733 38.77C52.6626 38.6271 52.5661 38.5063 52.4394 38.4117C52.3147 38.3151 52.1719 38.2265 52.0111 38.146L50.6899 37.4636C50.4888 37.359 50.342 37.2382 50.2495 37.0993C50.1591 36.9604 50.1148 36.7933 50.1148 36.5981C50.1148 36.4189 50.155 36.276 50.2375 36.1694C50.3179 36.0627 50.4426 35.9842 50.6075 35.9379C50.7744 35.8916 50.9815 35.8674 51.2349 35.8694C51.4219 35.8694 51.5908 35.8815 51.7416 35.9016C51.8944 35.9218 52.0312 35.952 52.1578 35.9882C52.2825 36.0224 52.4012 36.0647 52.5098 36.109C52.56 36.1291 52.5942 36.1351 52.6123 36.1251C52.6304 36.113 52.6405 36.0828 52.6384 36.0325V35.9761C52.6405 35.9238 52.6324 35.8855 52.6143 35.8574C52.5982 35.8292 52.56 35.805 52.4997 35.7829C52.3871 35.7386 52.2705 35.6983 52.1458 35.6621C52.0251 35.6279 51.8904 35.6017 51.7456 35.5816C51.5988 35.5615 51.4339 35.5514 51.2509 35.5514C50.9393 35.5494 50.6758 35.5856 50.4587 35.6561C50.2415 35.7265 50.0766 35.8413 49.962 35.9962C49.8494 36.1512 49.7931 36.3565 49.7911 36.6082C49.7931 36.8235 49.8252 37.0047 49.8876 37.1456C49.9499 37.2905 50.0404 37.4113 50.1591 37.5099C50.2757 37.6086 50.4144 37.6991 50.5753 37.7817L51.8964 38.464C52.0312 38.5325 52.1458 38.609 52.2383 38.6915C52.3288 38.774 52.3992 38.8666 52.4474 38.9713C52.4937 39.0759 52.5158 39.2007 52.5158 39.3396C52.5158 39.5208 52.4695 39.6657 52.379 39.7764C52.2865 39.8851 52.1518 39.9616 51.9688 40.0099C51.7878 40.0582 51.5646 40.0824 51.2952 40.0804C51.07 40.0784 50.8649 40.0663 50.6758 40.0401C50.4888 40.0139 50.326 39.9838 50.1852 39.9495C50.0444 39.9153 49.9298 39.8851 49.8433 39.859C49.7951 39.8449 49.7589 39.8429 49.7408 39.8569C49.7227 39.869 49.7126 39.9032 49.7147 39.9556V39.9999H49.7187ZM45.4034 37.3549C45.4054 36.9906 45.4657 36.6987 45.5843 36.4813C45.705 36.2619 45.8779 36.1049 46.0991 36.0063C46.3223 35.9077 46.5837 35.8614 46.8914 35.8634C47.189 35.8614 47.4484 35.9077 47.6716 36.0063C47.8928 36.1029 48.0657 36.2619 48.1904 36.4813C48.3131 36.6987 48.3774 36.9906 48.3774 37.3549V37.7978H45.4014V37.3549H45.4034ZM48.6831 37.3549C48.6811 36.9443 48.6087 36.6061 48.4639 36.3384C48.3191 36.0707 48.112 35.8714 47.8446 35.7426C47.5791 35.6118 47.2594 35.5474 46.8914 35.5474C46.5475 35.5494 46.258 35.5977 46.0247 35.6923C45.7895 35.7889 45.6045 35.9218 45.4677 36.0949C45.329 36.268 45.2284 36.4713 45.1681 36.7048C45.1078 36.9383 45.0776 37.1959 45.0796 37.4717V38.452C45.0796 38.923 45.154 39.3034 45.3008 39.5892C45.4476 39.873 45.6628 40.0804 45.9503 40.2072C46.2379 40.334 46.5958 40.3964 47.0201 40.3944C47.3077 40.3924 47.5691 40.3662 47.8043 40.3199C48.0376 40.2736 48.2387 40.2172 48.4056 40.1528C48.4559 40.1347 48.486 40.1126 48.5041 40.0864C48.5202 40.0582 48.5282 40.02 48.5262 39.9697V39.9214C48.5282 39.867 48.5202 39.8368 48.5041 39.8227C48.486 39.8086 48.4559 39.8147 48.4056 39.8328C48.3111 39.873 48.1924 39.9093 48.0497 39.9475C47.9069 39.9838 47.744 40.0139 47.565 40.0381C47.3861 40.0623 47.1991 40.0743 47 40.0743C46.632 40.0763 46.3284 40.028 46.0931 39.9274C45.8578 39.8268 45.6829 39.6597 45.5703 39.4282C45.4577 39.1967 45.4014 38.8887 45.4014 38.4983V38.1138H48.6268C48.6449 38.0091 48.659 37.8904 48.669 37.7636C48.6791 37.6347 48.6831 37.4999 48.6831 37.3549ZM43.0647 37.1436C43.0627 36.8698 43.0929 36.6384 43.1552 36.4491C43.2176 36.2599 43.3221 36.115 43.4689 36.0144C43.6177 35.9137 43.8208 35.8654 44.0822 35.8654C44.2049 35.8674 44.3034 35.8735 44.3798 35.8855C44.4583 35.8976 44.5065 35.9057 44.5266 35.9137C44.5689 35.9238 44.601 35.9198 44.6211 35.9016C44.6433 35.8835 44.6553 35.8493 44.6553 35.797V35.7305C44.6553 35.6782 44.6473 35.644 44.6252 35.6259C44.6051 35.6078 44.5729 35.5937 44.5266 35.5856C44.4965 35.5796 44.4442 35.5715 44.3658 35.5635C44.2894 35.5534 44.1948 35.5494 44.0822 35.5474C43.7444 35.5494 43.479 35.6178 43.2819 35.7547C43.0869 35.8896 42.9461 36.0768 42.8637 36.3163C42.7792 36.5538 42.741 36.8296 42.741 37.1436V40.173C42.739 40.2293 42.749 40.2676 42.7691 40.2877C42.7892 40.3078 42.8254 40.3179 42.8797 40.3179H42.926C42.9803 40.3199 43.0165 40.3098 43.0366 40.2877C43.0567 40.2676 43.0667 40.2293 43.0647 40.173V37.1436ZM39.7187 40.0763C39.411 40.0763 39.1576 40.0421 38.9545 39.9737C38.7514 39.9053 38.5886 39.8026 38.4719 39.6677C38.3533 39.5309 38.2688 39.3618 38.2186 39.1605C38.1703 38.9592 38.1442 38.7257 38.1462 38.462V37.4817C38.1442 37.2181 38.1703 36.9846 38.2186 36.7833C38.2688 36.582 38.3533 36.4129 38.4719 36.276C38.5886 36.1412 38.7514 36.0385 38.9545 35.9701C39.1576 35.9016 39.411 35.8654 39.7187 35.8654C40.0263 35.8654 40.2797 35.9016 40.4828 35.9701C40.6859 36.0385 40.8488 36.1412 40.9654 36.276C41.084 36.4129 41.1685 36.58 41.2188 36.7833C41.269 36.9846 41.2932 37.2181 41.2912 37.4817V38.462C41.2932 38.7257 41.269 38.9592 41.2188 39.1605C41.1705 39.3598 41.084 39.5309 40.9654 39.6677C40.8488 39.8026 40.6859 39.9053 40.4828 39.9737C40.2797 40.0401 40.0263 40.0763 39.7187 40.0763ZM37.8244 42.0953C37.8224 42.1516 37.8325 42.1899 37.8526 42.21C37.8727 42.2301 37.9089 42.2402 37.9632 42.2382H38.0094C38.0637 42.2402 38.0999 42.2301 38.12 42.21C38.1401 42.1899 38.1502 42.1496 38.1482 42.0953V39.5772C38.2206 39.7462 38.3251 39.8952 38.4599 40.016C38.5946 40.1367 38.7655 40.2313 38.9706 40.2937C39.1798 40.3602 39.4291 40.3944 39.7187 40.3944C40.0826 40.3924 40.3863 40.3461 40.6296 40.2555C40.8749 40.1629 41.068 40.0321 41.2127 39.861C41.3555 39.6919 41.4601 39.4886 41.5204 39.2511C41.5827 39.0156 41.6129 38.7519 41.6109 38.462V37.4817C41.6129 37.1919 41.5827 36.9282 41.5204 36.6927C41.4581 36.4552 41.3555 36.2519 41.2127 36.0828C41.068 35.9137 40.8749 35.7809 40.6296 35.6883C40.3843 35.5977 40.0806 35.5494 39.7187 35.5494C39.3547 35.5514 39.0511 35.5977 38.8077 35.6883C38.5624 35.7809 38.3694 35.9137 38.2246 36.0828C38.0798 36.2519 37.9773 36.4552 37.9149 36.6927C37.8526 36.9282 37.8224 37.1919 37.8244 37.4817V42.0953ZM33.4729 35.7688C33.4367 35.7124 33.4026 35.6742 33.3643 35.6541C33.3261 35.6339 33.2759 35.6239 33.2135 35.6259H33.1673C33.1029 35.6239 33.0647 35.6339 33.0547 35.6541C33.0426 35.6742 33.0567 35.7144 33.0929 35.7688L34.0159 37.2885C34.1104 37.4455 34.1948 37.5683 34.2672 37.6528C34.3396 37.7394 34.418 37.7998 34.4965 37.836C34.42 37.8743 34.3456 37.9346 34.2753 38.0212C34.2049 38.1057 34.1204 38.2285 34.0259 38.3855L32.9079 40.175C32.8717 40.2313 32.8576 40.2696 32.8697 40.2897C32.8797 40.3098 32.9179 40.3199 32.9823 40.3199H33.0285C33.0909 40.3219 33.1411 40.3119 33.1793 40.2897C33.2155 40.2696 33.2517 40.2313 33.2859 40.175L34.4321 38.3191C34.4864 38.2285 34.5387 38.1621 34.5849 38.1138C34.6332 38.0675 34.6774 38.0333 34.7217 38.0172C34.7639 37.9991 34.8061 37.991 34.8484 37.993C34.8906 37.991 34.9308 37.997 34.973 38.0131C35.0133 38.0272 35.0555 38.0594 35.1017 38.1057C35.15 38.152 35.2023 38.2245 35.2646 38.3191L36.4108 40.175C36.447 40.2313 36.4812 40.2696 36.5194 40.2897C36.5576 40.3098 36.6059 40.3199 36.6702 40.3199H36.7164C36.7808 40.3219 36.817 40.3119 36.8311 40.2897C36.8411 40.2696 36.827 40.2313 36.7909 40.175L35.6829 38.3855C35.5863 38.2285 35.5019 38.1057 35.4275 38.0212C35.3531 37.9346 35.2787 37.8743 35.2023 37.836C35.2827 37.7998 35.3591 37.7394 35.4315 37.6528C35.5039 37.5683 35.5884 37.4455 35.6829 37.2885L36.6059 35.7688C36.642 35.7124 36.6561 35.6742 36.6461 35.6541C36.634 35.6339 36.5958 35.6239 36.5315 35.6259H36.4852C36.4209 35.6239 36.3726 35.6339 36.3344 35.6541C36.2962 35.6742 36.26 35.7144 36.2258 35.7688L35.2465 37.3851C35.1842 37.4817 35.1198 37.5542 35.0515 37.6065C34.9811 37.6569 34.9147 37.683 34.8504 37.683C34.784 37.683 34.7177 37.6589 34.6493 37.6086C34.5809 37.5603 34.5146 37.4858 34.4542 37.3851L33.4729 35.7688ZM28.9344 37.1919H31.6893C31.7436 37.1939 31.7798 37.1838 31.7999 37.1637C31.82 37.1436 31.8301 37.1033 31.828 37.049V37.0007C31.8301 36.9443 31.82 36.9061 31.7999 36.8859C31.7798 36.8658 31.7436 36.8557 31.6893 36.8578H28.9344V34.9818C28.9324 34.7805 28.9766 34.6335 29.0651 34.5409C29.1556 34.4504 29.2964 34.402 29.4894 34.4041H32.0593C32.1136 34.4061 32.1498 34.396 32.1699 34.3759C32.19 34.3558 32.198 34.3155 32.198 34.2611V34.2128C32.2001 34.1565 32.19 34.1182 32.1699 34.0981C32.1498 34.078 32.1136 34.0679 32.0593 34.0679H29.5176C29.1958 34.0659 28.9606 34.1424 28.8138 34.2954C28.665 34.4504 28.5926 34.6939 28.5946 35.0301V39.3577C28.5926 39.6919 28.665 39.9354 28.8138 40.0904C28.9626 40.2454 29.1958 40.3219 29.5176 40.3199H32.0593C32.1136 40.3219 32.1498 40.3119 32.1699 40.2897C32.19 40.2696 32.198 40.2313 32.198 40.175V40.1267C32.2001 40.0703 32.19 40.0321 32.1699 40.0119C32.1498 39.9918 32.1136 39.9817 32.0593 39.9817H29.4894C29.2964 39.9838 29.1556 39.9375 29.0651 39.8449C28.9766 39.7523 28.9324 39.6053 28.9344 39.404V37.1919Z"
              fill="#123274"/>
        <path id="Vector_7"
              d="M56.9296 16.7854L43.9455 16.7874L49.4452 8.49031H42.9582L38.9143 14.537L35.701 19.3397L38.9143 24.1847L42.8416 30.1106L49.4452 30.0905L43.8952 21.7934H56.9296V16.7854Z"
              fill="#E30613"/>
        <path id="Vector_8"
              d="M27.008 8.37558C27.01 4.83896 26.7607 2.79186 25.3993 1.42512C24.404 0.42673 23.0848 0 20.9875 0C16.0488 0 13.8108 2.48993 10.9352 7.7214L0.651682 26.3888C0.29777 27.0209 -0.359781 28.1984 0.247499 29.229C0.846735 30.2475 2.12765 30.2475 2.74298 30.2475H3.53928C5.57226 30.2475 6.57166 29.6316 7.65752 27.7032L10.3863 22.6972H15.0072C17.2332 22.6751 18.1824 21.6988 18.1824 19.4303V19.2954C18.1824 18.4319 18.0879 17.4577 17.3901 16.7612C16.6722 16.0567 15.6768 15.9963 14.9851 16.0165H14.0259L17.8848 8.93315C19.1295 6.62438 19.6684 6.63243 19.8976 6.63243C19.972 6.63243 20.0183 6.64048 20.0424 6.64451C20.0565 6.68476 20.0786 6.77736 20.0786 6.96053V27.0651C20.0987 29.2954 21.076 30.2475 23.3463 30.2475H23.7122C24.5749 30.2475 25.5481 30.1529 26.2399 29.4585C26.9195 28.768 27 27.8079 26.9919 27.0531L27.008 8.37558Z"
              fill="#123274"/>
        <path id="Vector_9"
              d="M35.7874 10.0322L35.7613 9.99394C35.3833 9.42631 35.0032 9.06198 34.5307 8.81037C34.0661 8.56278 33.5594 8.45409 32.8918 8.45409H31.3776C30.9895 8.45409 29.8092 8.45409 29.222 9.51487C28.8218 10.2355 28.9103 11.0467 29.4874 11.9223L34.1647 19.3317L29.4914 26.733C29.2702 27.0672 28.6187 28.0655 29.22 29.1505C29.8092 30.2113 30.9895 30.2113 31.3756 30.2113H32.8898C33.5594 30.2113 34.0641 30.1006 34.5286 29.855C35.0032 29.6034 35.3833 29.237 35.7633 28.6674L41.6511 19.3317L35.7874 10.0322Z"
              fill="url(#paint0_linear_33_3938)"/>
    </g>
    <defs>
        <linearGradient id="paint0_linear_33_3938" x1="28.9729" y1="19.3317" x2="41.6519" y2="19.3317"
                        gradientUnits="userSpaceOnUse">
            <stop stop-color="#422683"/>
            <stop offset="1" stop-color="#E72060"/>
        </linearGradient>
    </defs>
</svg>
