<?xml version="1.0" encoding="UTF-8" standalone="no"?>
<svg
        height="37.29546"
        width="168.99411"
        viewBox="0 0 11.88015 2.6205466"
        version="1.1"
        id="svg14159"
        xmlns="http://www.w3.org/2000/svg"
        xmlns:svg="http://www.w3.org/2000/svg">
    <defs
            id="defs14163"/>
    <path
            d="M 11.880147,-6.4713363e-4 V 2.6211937 H 0 V -6.4713363e-4 Z"
            fill="#fecc00"
            id="path14155"
            style="stroke-width:0.0675975"/>
    <path
            d="m 3.830419,1.0948397 c -0.05192,0.070301 -0.138778,0.1925181 -0.191639,0.2639011 -0.02684,0.0363 -0.0753,0.1022075 0.08537,0.1022075 h 0.845984 c 0,0 0.136345,-0.1854876 0.250653,-0.3406243 C 4.976261,0.90928427 4.834237,0.47017027 4.278383,0.47017027 H 2.089302 l -0.37956,0.5157021 h 2.068689 c 0.104439,0 0.103019,0.039747 0.05198,0.10896733 z M 3.208927,1.5881671 c -0.16068,0 -0.112213,-0.066043 -0.08538,-0.1023429 0.05286,-0.071383 0.141143,-0.1923151 0.193059,-0.2626165 0.0511,-0.06922 0.05246,-0.1089676 -0.05212,-0.1089676 H 2.318396 L 1.556097,2.1502413 h 1.859002 c 0.613989,0 0.95583,-0.4176182 1.061215,-0.5620065 z M 4.418248,2.1502413 H 5.5088 L 5.922227,1.5880994 4.83181,1.5882348 C 4.831472,1.5881671 4.418248,2.1502413 4.418248,2.1502413 Z M 7.231998,0.47017027 6.813704,1.0383281 H 6.327001 L 6.745093,0.47017027 H 5.654878 L 4.9255,1.4609483 H 7.592902 L 8.322077,0.47017027 Z M 5.995503,2.1502413 H 7.085649 L 7.499279,1.5882348 H 6.409132 C 6.408723,1.5881671 5.995503,2.1502413 5.995503,2.1502413 Z M 0,1.8098874 V 1.9292645 H 1.518783 L 1.606523,1.8098874 Z M 1.769773,1.5881671 H 0 v 0.119242 H 1.681829 Z M 0,2.1502413 H 1.356076 L 1.443416,2.0315396 H 0 Z M 10.279704,1.9291971 h 1.600443 V 1.8098197 h -1.512566 z m -0.162572,0.2210442 h 1.763015 V 2.0315396 H 10.2044 Z m 0.413426,-0.5620742 -0.08767,0.1193774 H 11.88015 V 1.5881671 Z M 9.102627,1.4609483 9.831937,0.47017027 H 8.677303 c -4.1e-4,0 -0.729852,0.99077803 -0.729852,0.99077803 z M 7.853964,1.5881671 c 0,0 -0.0797,0.1088999 -0.118432,0.1613556 -0.136885,0.1849469 -0.01582,0.4007186 0.431003,0.4007186 H 9.917381 L 10.33101,1.5882348 H 7.853964 Z"
            fill="#d50029"
            id="path14157"
            style="stroke-width:0.0675975"/>
</svg>
