<svg xmlns="http://www.w3.org/2000/svg" version="1.0" width="50mm" height="21mm" viewBox="0 0 50 21"><path style="fill:#3f3f42;fill-opacity:1;fill-rule:evenodd;stroke:none" d="M32.173 16.573c-.91.254-2.095.36-3.111.36-2.646 0-4.382-1.376-4.382-3.894 0-2.392 1.63-3.937 4-3.937.53 0 1.101.063 1.44.232v-3.47h2.053zm-2.053-5.46c-.318-.149-.762-.233-1.27-.233-1.249 0-2.074.762-2.074 2.095 0 1.418.889 2.223 2.35 2.223.253 0 .655 0 .994-.085zm18.923 5.46c-.91.254-2.096.36-3.133.36-2.624 0-4.381-1.376-4.381-3.894 0-2.392 1.63-3.937 4-3.937.55 0 1.1.063 1.44.232v-3.47h2.074zm-2.074-5.46c-.318-.149-.741-.233-1.25-.233-1.27 0-2.095.762-2.095 2.095 0 1.418.91 2.223 2.37 2.223.255 0 .636 0 .975-.085zm-11.557 0c.338-.149.825-.191 1.227-.191 1.27 0 2.138.72 2.138 2.01 0 1.525-.974 2.223-2.265 2.244v1.757h.106c2.667 0 4.255-1.46 4.255-4.064 0-2.37-1.694-3.767-4.191-3.767-1.27 0-2.52.296-3.345.635V19.79h2.075zm0 0"/><path style="fill:#dc0032;fill-opacity:1;fill-rule:evenodd;stroke:none" d="M17.61 4.487h.022zm-.507-.275.338.381.19-.106z"/><path style="fill:#dc0032;fill-opacity:1;fill-rule:evenodd;stroke:none" d="m16.595 3.937.656.762.233-.127-.254-.296z"/><path style="fill:#dc0032;fill-opacity:1;fill-rule:evenodd;stroke:none" d="m16.065 3.662.995 1.143.233-.127L16.722 4z"/><path style="fill:#dc0032;fill-opacity:1;fill-rule:evenodd;stroke:none" d="M15.557 3.387 16.87 4.91l.233-.127-.91-1.059zm2.52 2.688-.149.084.148.17z"/><path style="fill:#dc0032;fill-opacity:1;fill-rule:evenodd;stroke:none" d="m15.05 3.111 1.63 1.905.232-.127-1.228-1.439zm2.942 3.006-.233.148.317.381v-.402z"/><path style="fill:#dc0032;fill-opacity:1;fill-rule:evenodd;stroke:none" d="m14.52 2.836 1.969 2.286.254-.127-1.567-1.82zm3.281 3.387-.233.148.508.593v-.402z"/><path style="fill:#dc0032;fill-opacity:1;fill-rule:evenodd;stroke:none" d="m14.012 2.561 2.307 2.667.233-.127L14.647 2.9zm3.599 3.789-.233.127.698.825V6.9z"/><path style="fill:#dc0032;fill-opacity:1;fill-rule:evenodd;stroke:none" d="m13.504 2.286 2.625 3.048.233-.127-2.223-2.582zm3.916 4.17-.233.127.89 1.037v-.402z"/><path style="fill:#dc0032;fill-opacity:1;fill-rule:evenodd;stroke:none" d="m12.975 2.01 2.963 3.43.233-.127-2.54-2.964zm4.255 4.552-.233.127 1.08 1.248v-.402z"/><path style="fill:#dc0032;fill-opacity:1;fill-rule:evenodd;stroke:none" d="m12.467 1.736 3.28 3.83.234-.147-2.879-3.345zm4.572 4.931-.233.127 1.27 1.482v-.402z"/><path style="fill:#dc0032;fill-opacity:1;fill-rule:evenodd;stroke:none" d="m11.938 1.46 3.62 4.213.232-.149L12.594 1.8zm4.932 5.313-.254.127 1.46 1.694V8.19z"/><path style="fill:#dc0032;fill-opacity:1;fill-rule:evenodd;stroke:none" d="m11.43 1.185 3.937 4.593.254-.148-3.535-4.106zm5.25 5.694-.234.127 1.63 1.926V8.51z"/><path style="fill:#dc0032;fill-opacity:1;fill-rule:evenodd;stroke:none" d="m10.922.91 4.276 4.974.232-.148-3.873-4.487zm5.567 6.075-.233.127 1.82 2.138v-.402z"/><path style="fill:#dc0032;fill-opacity:1;fill-rule:evenodd;stroke:none" d="m10.393.614 4.614 5.376.233-.148L11.049.974zm5.905 6.477-.233.127 2.011 2.35v-.403z"/><path style="fill:#dc0032;fill-opacity:1;fill-rule:evenodd;stroke:none" d="m9.885.339 4.932 5.757.232-.127-4.508-5.27zm6.223 6.858-.233.127 2.201 2.582v-.423z"/><path style="fill:#dc0032;fill-opacity:1;fill-rule:evenodd;stroke:none" d="m9.377.085 5.25 6.117.232-.127L10.012.423zm6.54 7.217-.233.127 2.392 2.794v-.402z"/><path style="fill:#dc0032;fill-opacity:1;fill-rule:evenodd;stroke:none" d="m9.038 0 5.398 6.308.232-.127L9.504.148 9.377.085A.6.6 0 0 0 9.038 0m6.689 7.408-.233.127 2.582 3.006v-.402z"/><path style="fill:#dc0032;fill-opacity:1;fill-rule:evenodd;stroke:none" d="M9.038 0c-.085 0-.17.021-.254.042l5.461 6.371.254-.127L9.102 0zm6.52 7.514-.233.127 2.751 3.239v-.424z"/><path style="fill:#dc0032;fill-opacity:1;fill-rule:evenodd;stroke:none" d="M8.848.021c-.043.021-.106.042-.127.064l-.127.063 5.482 6.371.233-.127zm6.519 7.599-.233.148 2.942 3.43v-.403z"/><path style="fill:#dc0032;fill-opacity:1;fill-rule:evenodd;stroke:none" d="m8.636.106-.233.127 5.482 6.392.233-.127zm6.54 7.62-.232.148 3.132 3.64v-.402z"/><path style="fill:#dc0032;fill-opacity:1;fill-rule:evenodd;stroke:none" d="m8.445.212-.232.127 5.482 6.392.233-.127zm6.54 7.62-.232.148 3.323 3.873v-.402z"/><path style="fill:#dc0032;fill-opacity:1;fill-rule:evenodd;stroke:none" d="m8.255.317-.233.127 5.482 6.393.233-.127zm6.54 7.62-.232.149 3.513 4.085v-.402z"/><path style="fill:#dc0032;fill-opacity:1;fill-rule:evenodd;stroke:none" d="M8.064.423 7.832.55l5.482 6.393.233-.127zm6.54 7.62-.232.148 3.704 4.297v-.402z"/><path style="fill:#dc0032;fill-opacity:1;fill-rule:evenodd;stroke:none" d="M7.874.53 7.64.655l5.482 6.392.233-.127zm6.562 7.62-.233.147 3.873 4.53v-.402z"/><path style="fill:#dc0032;fill-opacity:1;fill-rule:evenodd;stroke:none" d="m7.683.614-.232.148 5.503 6.392.233-.127zm6.562 7.662-.233.127 4.064 4.741v-.402z"/><path style="fill:#dc0032;fill-opacity:1;fill-rule:evenodd;stroke:none" d="M7.493.72 7.26.847l5.503 6.413.233-.127zm6.562 7.662-.233.127 4.254 4.974v-.423z"/><path style="fill:#dc0032;fill-opacity:1;fill-rule:evenodd;stroke:none" d="M7.302.825 7.07.952l5.503 6.435.233-.148zm6.562 7.663-.233.127 4.445 5.186v-.403z"/><path style="fill:#dc0032;fill-opacity:1;fill-rule:evenodd;stroke:none" d="m7.112.931-.233.127 5.503 6.435.233-.148zm6.562 7.663-.233.127 4.635 5.397v-.402z"/><path style="fill:#dc0032;fill-opacity:1;fill-rule:evenodd;stroke:none" d="m6.921 1.037-.232.127L12.192 7.6l.233-.148zM13.483 8.7l-.233.127 4.826 5.63v-.423z"/><path style="fill:#dc0032;fill-opacity:1;fill-rule:evenodd;stroke:none" d="m6.73 1.143-.232.127 5.503 6.435.233-.149zm6.584 7.662-.233.127 4.995 5.842v-.402z"/><path style="fill:#dc0032;fill-opacity:1;fill-rule:evenodd;stroke:none" d="m6.54 1.228-.254.127 5.546 6.455.233-.148zm6.583 7.683-.233.127 5.186 6.054v-.402z"/><path style="fill:#dc0032;fill-opacity:1;fill-rule:evenodd;stroke:none" d="m6.35 1.333-.254.127 5.567 6.477a.17.17 0 0 1 .084-.084l.127-.085zm6.583 7.684-.233.127 5.334 6.223a.6.6 0 0 0 .042-.19v-.17z"/><path style="fill:#dc0032;fill-opacity:1;fill-rule:evenodd;stroke:none" d="m6.16 1.44-.255.126L11.6 8.191v-.084c0-.064.043-.148.085-.212zm6.582 7.683-.17.106c-.02 0-.041.02-.063.02l5.419 6.33a.7.7 0 0 0 .127-.254z"/><path style="fill:#dc0032;fill-opacity:1;fill-rule:evenodd;stroke:none" d="m5.969 1.545-.254.127 5.884 6.858v-.423zm6.18 7.599 5.63 6.583c.064-.043.128-.127.191-.19l-5.418-6.308a.36.36 0 0 1-.297 0z"/><path style="fill:#dc0032;fill-opacity:1;fill-rule:evenodd;stroke:none" d="m5.778 1.651-.254.127L17.59 15.833l.17-.085.063-.064-5.545-6.455h-.022l-.486-.297c-.043-.02-.064-.063-.106-.106-.043-.063-.043-.105-.064-.148v-.233z"/><path style="fill:#dc0032;fill-opacity:1;fill-rule:evenodd;stroke:none" d="m5.588 1.757-.254.127 12.065 14.054.233-.127z"/><path style="fill:#dc0032;fill-opacity:1;fill-rule:evenodd;stroke:none" d="m5.397 1.841-.254.127L17.23 16.044l.232-.127z"/><path style="fill:#dc0032;fill-opacity:1;fill-rule:evenodd;stroke:none" d="m5.207 1.947-.254.127L17.039 16.15l.233-.127z"/><path style="fill:#dc0032;fill-opacity:1;fill-rule:evenodd;stroke:none" d="m5.016 2.053-.254.127L16.85 16.256l.232-.127z"/><path style="fill:#dc0032;fill-opacity:1;fill-rule:evenodd;stroke:none" d="m4.805 2.159-.233.127 12.086 14.097.233-.148z"/><path style="fill:#dc0032;fill-opacity:1;fill-rule:evenodd;stroke:none" d="m4.614 2.265-.233.127 12.087 14.097.232-.148z"/><path style="fill:#dc0032;fill-opacity:1;fill-rule:evenodd;stroke:none" d="m4.424 2.37-.233.128 12.107 14.097.233-.149z"/><path style="fill:#dc0032;fill-opacity:1;fill-rule:evenodd;stroke:none" d="M4.233 2.455 4 2.582 16.108 16.7l.233-.148z"/><path style="fill:#dc0032;fill-opacity:1;fill-rule:evenodd;stroke:none" d="m4.043 2.561-.233.127 12.107 14.118.233-.127z"/><path style="fill:#dc0032;fill-opacity:1;fill-rule:evenodd;stroke:none" d="m3.852 2.667-.233.127 5.885 6.858.19.127c.085.042.17.148.17.254v.021l5.863 6.858.233-.127z"/><path style="fill:#dc0032;fill-opacity:1;fill-rule:evenodd;stroke:none" d="m3.662 2.773-.233.127 5.524 6.456.699.38zm6.18 7.196c0 .022.022.043.022.064v.36l5.672 6.625.233-.127z"/><path style="fill:#dc0032;fill-opacity:1;fill-rule:evenodd;stroke:none" d="m3.471 2.879-.233.127 5.165 6.032.699.381zm6.393 7.43v.401l5.503 6.414.233-.127z"/><path style="fill:#dc0032;fill-opacity:1;fill-rule:evenodd;stroke:none" d="m3.28 2.984-.232.127 4.826 5.61.677.38zm6.584 7.642v.423l5.312 6.18.233-.126z"/><path style="fill:#dc0032;fill-opacity:1;fill-rule:evenodd;stroke:none" d="m3.09 3.07-.233.126 4.467 5.207.677.402zm6.774 7.894v.402l5.122 5.97.233-.128z"/><path style="fill:#dc0032;fill-opacity:1;fill-rule:evenodd;stroke:none" d="m2.9 3.175-.233.127 4.106 4.784.678.402zm6.964 8.107v.402l4.931 5.757.233-.127z"/><path style="fill:#dc0032;fill-opacity:1;fill-rule:evenodd;stroke:none" d="m2.71 3.28-.234.128 3.747 4.381.677.381zm7.154 8.32v.423l4.74 5.545.234-.148z"/><path style="fill:#dc0032;fill-opacity:1;fill-rule:evenodd;stroke:none" d="m2.519 3.387-.233.127 3.387 3.958.677.38zm7.345 8.55v.403l4.572 5.334.232-.148z"/><path style="fill:#dc0032;fill-opacity:1;fill-rule:evenodd;stroke:none" d="m2.328 3.492-.233.127 3.027 3.535.699.381zm7.536 8.763v.403l4.381 5.122.233-.148z"/><path style="fill:#db0032;fill-opacity:1;fill-rule:evenodd;stroke:none" d="m2.138 3.598-.233.127 2.667 3.112.698.402zm5.545 6.858.55.635v-.233c0-.042-.042-.105-.084-.127zm2.18 2.117v.423l4.192 4.89.232-.148z"/><path style="fill:#dc0032;fill-opacity:1;fill-rule:evenodd;stroke:none" d="m1.947 3.683-.233.127 2.308 2.71.698.401zm5.186 6.456 1.1 1.27v-.402l-.401-.466zm2.73 2.773v.402l4.001 4.678.233-.127z"/><path style="fill:#dc0032;fill-opacity:1;fill-rule:evenodd;stroke:none" d="m1.757 3.789-.233.127 1.968 2.307.678.38zm4.826 6.053 1.65 1.905v-.402l-.952-1.122zm3.28 3.387v.402l3.81 4.466.233-.127z"/><path style="fill:#dc0032;fill-opacity:1;fill-rule:evenodd;stroke:none" d="m1.566 3.895-.233.127 1.61 1.883.676.381zm4.488 5.63 2.18 2.54v-.402L6.73 9.906zm3.81 4.043v.402l3.64 4.233.233-.127z"/><path style="fill:#dc0032;fill-opacity:1;fill-rule:evenodd;stroke:none" d="m1.376 4-.233.127 1.249 1.461.677.38zm4.127 5.207 2.73 3.175v-.402L6.182 9.61zm4.36 4.678v.402l3.45 4.022.234-.127z"/><path style="fill:#dc0032;fill-opacity:1;fill-rule:evenodd;stroke:none" d="m1.185 4.106-.233.127.89 1.037.677.403zM4.953 8.89l3.28 3.831v-.402L5.63 9.292zm4.91 5.313v.402l3.26 3.81.233-.127z"/><path style="fill:#dc0032;fill-opacity:1;fill-rule:evenodd;stroke:none" d="m.995 4.212-.233.127.53.614.698.402zm3.408 4.382 3.83 4.445v-.403L5.08 8.975zm5.46 5.947v.403l3.07 3.577.233-.127z"/><path style="fill:#dc0032;fill-opacity:1;fill-rule:evenodd;stroke:none" d="m.804 4.297-.254.127.19.233.7.38zm3.048 3.98 4.382 5.1v-.423L4.55 8.657zm6.012 6.582v.402l2.878 3.387.233-.148z"/><path style="fill:#dc0032;fill-opacity:1;fill-rule:evenodd;stroke:none" d="m.614 4.403-.148.084.423.233zm2.688 3.556 4.932 5.736v-.402L4 8.36zm6.562 7.217v.424l2.709 3.154.233-.149z"/><path style="fill:#dc0032;fill-opacity:1;fill-rule:evenodd;stroke:none" d="m2.773 7.641 5.46 6.371v-.402L3.45 8.043zm7.09 7.874v.402l2.52 2.942.232-.148z"/><path style="fill:#dc0032;fill-opacity:1;fill-rule:evenodd;stroke:none" d="m2.222 7.345 6.012 7.006v-.423L2.9 7.726zm7.642 8.488v.402l2.328 2.73.233-.148z"/><path style="fill:#dc0032;fill-opacity:1;fill-rule:evenodd;stroke:none" d="m1.672 7.027 6.562 7.641v-.402L2.349 7.408zm8.192 9.123v.423L12 19.071l.233-.127z"/><path style="fill:#db0032;fill-opacity:1;fill-rule:evenodd;stroke:none" d="m1.122 6.71 7.112 8.276v-.402L1.799 7.112zm8.742 9.779v.402l1.947 2.286.233-.127z"/><path style="fill:#da0032;fill-opacity:1;fill-rule:evenodd;stroke:none" d="m.571 6.392 7.663 8.933v-.403L1.249 6.794zm9.293 10.414v.402l1.778 2.075.232-.127z"/><path style="fill:#d90032;fill-opacity:1;fill-rule:evenodd;stroke:none" d="m.021 6.096 8.213 9.546v-.402L.72 6.477zm9.843 11.028v.423l1.587 1.842.233-.127z"/><path style="fill:#d80032;fill-opacity:1;fill-rule:evenodd;stroke:none" d="M0 6.075v.296l8.234 9.589v-.403L.169 6.16zm9.864 11.387v.254a.16.16 0 0 1-.043.106l1.44 1.672.232-.127z"/><path style="fill:#d70032;fill-opacity:1;fill-rule:evenodd;stroke:none" d="M0 6.286v.424l8.234 9.588v-.402zM9.842 17.78c-.02.085-.084.17-.148.19l-.02.022L11.07 19.6l.233-.127z"/><path style="fill:#d60032;fill-opacity:1;fill-rule:evenodd;stroke:none" d="M0 6.625v.402l8.234 9.589v-.402zM9.715 17.95c0 .021 0 .021-.02.021l-.212.127 1.397 1.609.232-.127z"/><path style="fill:#d50032;fill-opacity:1;fill-rule:evenodd;stroke:none" d="M0 6.943v.402l8.234 9.588v-.402zm9.546 11.112-.254.148 1.418 1.63.233-.148z"/><path style="fill:#d40032;fill-opacity:1;fill-rule:evenodd;stroke:none" d="M0 7.281v.402l8.234 9.589v-.402zm9.356 10.88-.149.085c-.042.02-.084.02-.127.02l1.44 1.673.233-.148z"/><path style="fill:#d30032;fill-opacity:1;fill-rule:evenodd;stroke:none" d="M0 7.599V8l8.234 9.588v-.402zM8.7 18.16l1.63 1.884.232-.148-1.418-1.63c-.021 0-.064.02-.085.02h-.02a.3.3 0 0 1-.15-.041z"/><path style="fill:#d20032;fill-opacity:1;fill-rule:evenodd;stroke:none" d="M0 7.916v.424l10.139 11.81.233-.148-1.524-1.778-.466-.254a.3.3 0 0 1-.148-.254v-.211z"/><path style="fill:#d10032;fill-opacity:1;fill-rule:evenodd;stroke:none" d="M0 8.255v.402l9.948 11.6.233-.128z"/><path style="fill:#d00032;fill-opacity:1;fill-rule:evenodd;stroke:none" d="M0 8.572v.403l9.758 11.387.233-.127z"/><path style="fill:#cf0032;fill-opacity:1;fill-rule:evenodd;stroke:none" d="M0 8.89v.423l9.588 11.155.233-.127z"/><path style="fill:#ce0032;fill-opacity:1;fill-rule:evenodd;stroke:none" d="M0 9.229v.402l9.398 10.943.233-.127z"/><path style="fill:#cd0032;fill-opacity:1;fill-rule:evenodd;stroke:none" d="M0 9.546v.402l9.186 10.71q.096-.03.19-.063l.064-.042z"/><path style="fill:#cc0032;fill-opacity:1;fill-rule:evenodd;stroke:none" d="M0 9.864v.423l8.911 10.372h.127c.064 0 .127 0 .19-.022z"/><path style="fill:#cb0032;fill-opacity:1;fill-rule:evenodd;stroke:none" d="M0 10.202v.402l8.424 9.822.297.169a.5.5 0 0 0 .254.064z"/><path style="fill:#ca0032;fill-opacity:1;fill-rule:evenodd;stroke:none" d="M0 10.52v.402l7.874 9.186.698.402z"/><path style="fill:#c90032;fill-opacity:1;fill-rule:evenodd;stroke:none" d="M0 10.858v.403l7.324 8.53.698.402z"/><path style="fill:#c80033;fill-opacity:1;fill-rule:evenodd;stroke:none" d="M0 11.176v.402l6.773 7.895.678.402z"/><path style="fill:#c70033;fill-opacity:1;fill-rule:evenodd;stroke:none" d="M0 11.493v.403l6.223 7.26.677.402z"/><path style="fill:#c60033;fill-opacity:1;fill-rule:evenodd;stroke:none" d="M0 11.832v.402l5.651 6.583.699.402z"/><path style="fill:#c50033;fill-opacity:1;fill-rule:evenodd;stroke:none" d="M0 12.15v.402L5.101 18.5l.699.402z"/><path style="fill:#c40033;fill-opacity:1;fill-rule:evenodd;stroke:none" d="M0 12.467v.402l4.55 5.313.7.402z"/><path style="fill:#c30033;fill-opacity:1;fill-rule:evenodd;stroke:none" d="M0 12.806v.402l4 4.657.699.402z"/><path style="fill:#c20033;fill-opacity:1;fill-rule:evenodd;stroke:none" d="M0 13.123v.402l3.45 4.022.699.402z"/><path style="fill:#c10033;fill-opacity:1;fill-rule:evenodd;stroke:none" d="M0 13.44v.424l2.9 3.366.677.402z"/><path style="fill:#c00033;fill-opacity:1;fill-rule:evenodd;stroke:none" d="M0 13.78v.402l2.328 2.73.699.402z"/><path style="fill:#bf0033;fill-opacity:1;fill-rule:evenodd;stroke:none" d="M0 14.097v.402l1.778 2.096.698.38z"/><path style="fill:#be0033;fill-opacity:1;fill-rule:evenodd;stroke:none" d="M0 14.414v.424l1.228 1.418.698.402z"/><path style="fill:#bd0033;fill-opacity:1;fill-rule:evenodd;stroke:none" d="M0 14.753v.402l.677.783.699.403z"/><path style="fill:#bc0033;fill-opacity:1;fill-rule:evenodd;stroke:none" d="M0 15.07v.106c0 .212.148.466.317.572l.508.275z"/><path style="fill:#b03;fill-opacity:1;fill-rule:evenodd;stroke:none" d="M.127 15.557c.042.043.063.085.106.106z"/></svg>