<svg width="68" height="31" viewBox="0 0 68 31" fill="none" xmlns="http://www.w3.org/2000/svg">
    <g id="LOGO DPD - INSTRUKTAZ 1">
        <path id="Vector"
              d="M65.5272 21.9252C64.3204 22.2435 62.7499 22.4006 61.3843 22.4006C57.8782 22.4006 55.5566 20.5392 55.5566 17.1334C55.5566 13.9097 57.718 11.8203 60.8826 11.8203C61.5878 11.8203 62.3389 11.9107 62.7945 12.1387V7.45947H65.5258V21.9252H65.5272ZM62.7959 14.545C62.3625 14.3406 61.794 14.2266 61.1098 14.2266C59.4501 14.2266 58.3339 15.2484 58.3339 17.0431C58.3339 18.9739 59.5393 20.0638 61.4749 20.0638C61.8163 20.0638 62.3403 20.0402 62.7945 19.9498V14.545H62.7959Z"
              fill="#414042"/>
        <path id="Vector_2"
              d="M43.1279 21.9252C41.9211 22.2435 40.3506 22.4006 38.985 22.4006C35.4789 22.4006 33.1573 20.5392 33.1573 17.1334C33.1573 13.9097 35.3187 11.8203 38.4833 11.8203C39.1884 11.8203 39.9395 11.9107 40.3952 12.1387V7.45947H43.1265V21.9252H43.1279ZM40.3966 14.545C39.9632 14.3406 39.3947 14.2266 38.7105 14.2266C37.0494 14.2266 35.9346 15.2484 35.9346 17.0431C35.9346 18.9739 37.14 20.0638 39.0756 20.0638C39.417 20.0638 39.9409 20.0402 40.3952 19.9498V14.545H40.3966Z"
              fill="#414042"/>
        <path id="Vector_3"
              d="M47.4241 14.5227C47.8784 14.3406 48.5166 14.2739 49.0615 14.2739C50.7462 14.2739 51.907 15.2498 51.907 16.9986C51.907 19.0601 50.6208 19.9929 48.9012 20.0165V22.4006C48.9458 22.4006 48.9918 22.402 49.0378 22.402C52.5648 22.402 54.6829 20.4266 54.6829 16.9082C54.6829 13.7067 52.4296 11.8217 49.1061 11.8217C47.4227 11.8217 45.7602 12.2082 44.6677 12.6613V26.2638H47.4227V14.5227H47.4241Z"
              fill="#414042"/>
        <path id="Vector_4" fill-rule="evenodd" clip-rule="evenodd"
              d="M13.9422 29.0761C13.9129 29.0691 13.8837 29.0608 13.8572 29.0524H13.8558C13.8349 29.0455 13.8154 29.0371 13.7959 29.0288V29.0274H13.7945C13.7875 29.0246 13.7792 29.0204 13.7722 29.0163V29.0149H13.7694C13.7624 29.0107 13.7555 29.0079 13.7485 29.0038V29.0024H13.7471L13.7373 28.9968L12.9556 28.5395L11.746 27.8333L10.5365 27.1271L7.2631 25.2143L6.05353 24.5081L4.84396 23.8019L3.63439 23.0957L2.55303 22.4646C2.53491 22.4535 2.5168 22.4423 2.49868 22.4284V22.4256H2.4959C2.47639 22.4117 2.45688 22.3951 2.43876 22.3784V22.377H2.43737L2.42622 22.3673V22.3645H2.42343C2.4081 22.3492 2.39138 22.3339 2.37605 22.3158V22.3144H2.37466C2.344 22.2811 2.31613 22.2449 2.28965 22.206V22.2046H2.28826C2.24506 22.1393 2.20744 22.0698 2.17957 21.9975C2.17539 21.9864 2.17121 21.9752 2.16703 21.9655V21.9613H2.16563C2.13637 21.8765 2.11965 21.7917 2.11965 21.7111L2.11825 21.1704V21.1565L2.10571 17.278V17.2585L2.09317 13.3856V13.3842L2.08063 9.49323L12.9779 15.6487C13.0322 15.6793 13.0824 15.7627 13.088 15.8308L13.0908 25.1336C13.0908 25.2643 13.1799 25.4144 13.2914 25.4742L13.952 25.8384C14.0105 25.869 14.0829 25.8843 14.1624 25.8829H14.1749C14.2474 25.8829 14.3171 25.8662 14.3714 25.837L15.0305 25.4728C15.1448 25.4117 15.234 25.2629 15.234 25.1322L15.2382 14.6937C15.2382 14.5617 15.1518 14.4143 15.0375 14.3517L13.1688 13.298L10.556 11.8245L10.2745 11.666L7.94174 10.3509L7.66164 10.1925L5.3289 8.8774L2.72443 7.40802L13.7095 1.37345C13.7555 1.34843 13.8084 1.32758 13.8628 1.31228H13.8656V1.31089C13.9004 1.30116 13.938 1.29282 13.9742 1.28726C14.0147 1.28031 14.0579 1.27753 14.0997 1.27475H14.1875C14.2697 1.27753 14.3505 1.29004 14.4257 1.31089H14.4271C14.4522 1.31784 14.4759 1.32619 14.4996 1.33453H14.5052C14.5344 1.34565 14.5623 1.35816 14.5874 1.37345L18.5951 3.58932L22.7603 5.89139L23.7734 6.45161L25.3425 7.31905L17.7883 11.8384C17.7534 11.8578 17.7214 11.8898 17.6949 11.926L17.6893 11.9301C17.5779 11.9941 17.4901 12.1428 17.4901 12.2721V13.0283C17.4901 13.1562 17.5751 13.3091 17.6838 13.3759L18.3234 13.7707C18.3791 13.8054 18.453 13.8249 18.531 13.8249C18.6021 13.8249 18.6704 13.8082 18.7233 13.7776L25.1405 9.93807L25.2018 9.90193L25.2631 9.86578L25.3244 9.82964L25.3857 9.7935L26.0602 9.39036L26.0616 21.7042C26.0616 21.7222 26.0602 21.7403 26.0588 21.7584H26.0574V21.7737C26.0546 21.7973 26.0518 21.8195 26.0462 21.8432H26.0448V21.8487C26.0184 21.9725 25.9612 22.099 25.886 22.2088C25.8748 22.2255 25.8623 22.2408 25.8511 22.2574H25.8498V22.2588C25.8024 22.3186 25.7494 22.3728 25.6937 22.4159H25.6909V22.4173C25.6714 22.4326 25.6519 22.4451 25.631 22.4576L22.0023 24.6082L21.1592 25.1072L17.3981 27.337L16.555 27.8361L14.5971 28.9968C14.5679 29.0135 14.5372 29.0288 14.5038 29.0427C14.4926 29.0469 14.4815 29.051 14.4703 29.0552H14.4662V29.0566C14.455 29.0608 14.4425 29.0635 14.4313 29.0677H14.4299C14.4146 29.0719 14.3993 29.076 14.3839 29.0788H14.3812C14.2404 29.108 14.0829 29.108 13.9422 29.0761Z"
              fill="#ED1944"/>
    </g>
</svg>
