<svg version="1.0" xmlns="http://www.w3.org/2000/svg" viewBox="0 0 909 658" style="enable-background:new 0 0 909 658" xml:space="preserve"><path d="M778.2 451c22.6 0 40.8-18.2 40.8-40.2 0-22.6-18.2-40.3-40.8-40.3s-40.8 18.2-40.8 40.2c.6 22.1 18.8 40.3 40.8 40.3z" style="fill:#ffd100"/><path d="M206.8 320.4v53H251c-6.4 10.3-21.1 15.7-30.9 15.7-33.4 0-50.1-18.7-50.1-57 0-42.2 22.1-63.8 65.3-63.8 17.2 0 39.8 4.4 64.3 11.8v-63.3c-6.9-3-17.7-5.4-31.4-7.9-12-1.8-24.2-2.8-36.3-3-43.2 0-77.6 11.8-103.1 34.9-26 23.2-38.8 54.6-38.8 93.8 0 36.3 9.8 64.8 30 85.4 20.1 21.1 47.1 31.9 81 31.9s65.3-17.7 75.6-39.8V448h49.1V320.4H206.8zM349.7 448V210h76.6v176.2h83.5V448H349.7zm184.1-5.9v-64.8c13 4 26.3 7.1 39.8 9.3 14.7 2.5 28 3.9 38.8 3.9 18.7 0 28.5-4.4 28.5-12.8 0-5.4-3-7.9-16.7-10.8l-26.5-5.9c-45.6-10.3-66.8-33.4-66.8-72.2 0-25.5 8.8-45.6 26.5-60.9 17.7-14.7 42.2-22.1 73.2-22.1 21.1 0 54 4.4 73.6 9.3V277c-10.3-2.5-22.6-5.4-37.8-7.9-14.7-2.5-26.5-3.4-35.3-3.4-16.2 0-25.5 4.4-25.5 12.8 0 4.9 4.4 8.4 13.3 10.8l30.9 7.4c45.2 10.8 66.3 33.9 66.3 73.1 0 25-9.3 45.2-27.5 59.9S644.7 452 612.8 452c-30.9 0-61.8-4.4-79-9.9z" style="fill:#0713b8"/></svg>