<svg xmlns="http://www.w3.org/2000/svg" width="52" height="41" viewBox="0 0 52 41" fill="none">
    <g clip-path="url(#clip0_318_234)">
        <path d="M51.912 31.8236H0.0335083V40.65H51.912V31.8236Z" fill="#383D3D"/>
        <path d="M51.912 0.35H0.0335083V31.83H51.912V0.35Z" fill="#FEC82A"/>
        <mask id="mask0_318_234" style="mask-type:luminance" maskUnits="userSpaceOnUse" x="0" y="0" width="52" height="41">
            <path d="M52 0.350002H0V40.65H52V0.350002Z" fill="white"/>
        </mask>
        <g mask="url(#mask0_318_234)">
            <path d="M27.1194 20.2246H25.9403V16.8063C25.9403 16.0805 25.6199 15.6986 25.046 15.65C24.5978 15.6437 24.1497 15.6943 23.7119 15.7977V20.2246H22.5328V14.9516C23.4334 14.7575 24.3507 14.6499 25.2722 14.6288C25.7728 14.6182 26.2545 14.8144 26.6063 15.1732C26.9623 15.553 27.1466 16.0636 27.1131 16.5827L27.1194 20.2225V20.2246Z" fill="#35383D"/>
            <path d="M47.0532 20.2584C46.8542 20.3111 46.6511 20.3407 46.4458 20.3386C45.9558 20.4082 45.4615 20.2415 45.1117 19.8891C44.9002 19.4756 44.8123 19.0092 44.8583 18.545V13.0652H46.0249V14.6161H47.0574V15.5762H46.0374V18.4838C46.0165 18.697 46.0563 18.9101 46.1505 19.1021C46.3118 19.254 46.5317 19.3258 46.7495 19.2962H47.049V20.2563L47.0532 20.2584Z" fill="#35383D"/>
            <path d="M10.5323 16.6523C9.54173 17.0068 8.49875 17.1904 7.44531 17.1967C6.39186 17.1904 5.34679 17.0068 4.35199 16.6523C5.34679 16.302 6.39186 16.1227 7.44531 16.1142C8.49666 16.1206 9.53963 16.302 10.5323 16.6523Z" fill="white"/>
            <path d="M14.8069 8.72482C13.9608 8.1108 13.2236 7.35751 12.6267 6.49449C12.0382 5.63359 11.6005 4.67773 11.3324 3.66702C12.1869 4.27682 12.9325 5.03222 13.5314 5.89735C14.1137 6.76036 14.543 7.71622 14.8048 8.72482" fill="white"/>
            <path d="M11.6801 12.1516C10.6287 12.0039 9.61087 11.6789 8.66633 11.1915C7.75111 10.6956 6.92594 10.0521 6.22015 9.28399C7.26103 9.43169 8.2705 9.75453 9.20666 10.2377C10.1324 10.7315 10.968 11.3793 11.6801 12.1516Z" fill="white"/>
            <path d="M14.6666 19.2498C15.3577 19.1696 16.0195 18.9291 16.5996 18.545C16.5996 18.545 14.1388 17.8128 14.3001 15.5762C14.8195 11.9131 17.7201 9.06032 21.3663 8.62354C20.9726 8.57078 20.5768 8.54124 20.1788 8.54335C15.6949 8.50959 12.0319 12.1452 11.9984 16.6629V16.6776C12.0675 21.1953 15.7556 24.8014 20.2375 24.7381C20.6103 24.7381 20.9831 24.7106 21.3517 24.6579C18.2123 24.2717 15.5797 22.0899 14.5975 19.062" fill="white"/>
            <path d="M14.8069 24.5292C13.9608 25.1432 13.2236 25.8965 12.6267 26.7595C12.0361 27.6288 11.5984 28.5952 11.3324 29.6144C12.1785 29.0004 12.9157 28.2471 13.5126 27.3841C14.1032 26.5147 14.5409 25.5483 14.8069 24.5292Z" fill="white"/>
            <path d="M11.6801 21.132C9.58573 21.4147 7.65267 22.4275 6.22015 23.9932C7.26103 23.8455 8.2705 23.5227 9.20666 23.0395C10.1303 22.5478 10.9659 21.9021 11.6801 21.132Z" fill="white"/>
        </g>
        <path d="M21.3663 13.0652H20.16V20.2246H21.3663V13.0652Z" fill="#35383D"/>
        <mask id="mask1_318_234" style="mask-type:luminance" maskUnits="userSpaceOnUse" x="0" y="0" width="52" height="41">
            <path d="M52 0.350002H0V40.65H52V0.350002Z" fill="white"/>
        </mask>
        <g mask="url(#mask1_318_234)">
            <path d="M32.2401 15.5234C32.3364 14.9052 31.9175 14.3228 31.3039 14.2236C31.1971 14.2068 31.0882 14.2046 30.9814 14.2194H29.4944V16.7979H30.9604C31.306 16.8211 31.6453 16.6987 31.9008 16.4624C32.1395 16.2092 32.261 15.8695 32.2401 15.5213M33.4611 15.5087C33.4904 16.1649 33.2474 16.8042 32.7951 17.2748C32.2987 17.739 31.6369 17.9795 30.9625 17.9458H29.4965V20.2099H28.2902V13.0441H30.8704C31.5762 13.0019 32.2694 13.2446 32.7972 13.7151C33.2621 14.1962 33.5029 14.8524 33.4631 15.5213" fill="#35383D"/>
            <path d="M37.8193 17.3824C37.8424 16.9245 37.7125 16.4708 37.4465 16.0995C37.0172 15.5424 36.2214 15.4433 35.6685 15.8758C35.5847 15.9412 35.5114 16.0172 35.4465 16.0995C35.1847 16.4708 35.0548 16.9203 35.08 17.3761C35.0548 17.8339 35.1826 18.2855 35.4465 18.659C35.6831 18.967 36.0538 19.1422 36.4392 19.1295C36.8245 19.1422 37.191 18.967 37.4256 18.659C37.6916 18.2876 37.8235 17.8339 37.7984 17.3761M39.0382 17.3824C39.0717 18.1441 38.8141 18.889 38.3178 19.465C37.3062 20.5011 35.6517 20.5158 34.6213 19.4967C34.6108 19.4861 34.6004 19.4756 34.5899 19.465C34.0935 18.8911 33.8359 18.1441 33.8694 17.3824C33.8338 16.6228 34.0914 15.88 34.5899 15.3061C35.6098 14.2679 37.2727 14.2595 38.3052 15.2871L38.3241 15.3061C38.8162 15.88 39.0717 16.6228 39.0382 17.3824Z" fill="#35383D"/>
            <path d="M44.1735 18.3783C44.184 18.8995 43.9536 19.3975 43.5473 19.7224C43.0761 20.0896 42.4897 20.2753 41.8949 20.2457C40.9713 20.3027 40.0686 19.9524 39.4215 19.2857L40.3158 18.486C40.7241 18.9164 41.2917 19.1591 41.8823 19.1569C42.1609 19.1717 42.4373 19.1 42.6761 18.9565C42.852 18.8573 42.9609 18.6695 42.963 18.467C42.9735 18.2517 42.8352 18.0555 42.63 17.9964C42.2907 17.9078 41.9451 17.8466 41.5975 17.815C41.0865 17.7728 40.5922 17.6208 40.144 17.3718C39.8026 17.1186 39.6121 16.7093 39.6372 16.2831C39.6372 15.7956 39.8676 15.3356 40.2571 15.0466C40.7304 14.6963 41.3106 14.519 41.897 14.5486C42.6782 14.5359 43.4342 14.8292 44.0039 15.3673L43.3379 16.1121C42.9441 15.7471 42.4268 15.5466 41.8907 15.5488C41.2247 15.5488 40.8582 15.7429 40.8582 16.1332C40.8582 16.3611 41.0111 16.5152 41.3315 16.6038L42.6656 16.8253C43.6981 17.0195 44.2112 17.5364 44.2112 18.3762" fill="#35383D"/>
            <path d="M45.5495 34.4485V35.7104H46.2113V35.0541H47.715L46.2762 38.3036H47.0364L48.5234 34.9275V34.4485H45.5495ZM43.1494 38.8543H43.7609L45.5662 33.6657H44.9526L43.1494 38.8543ZM43.1159 36.8224H42.4373V36.0459H41.7692V36.8224H40.5168L42.2928 34.4485H41.5326L39.6456 36.9321V37.4279H41.7441V38.3036H42.4331V37.4279H43.1117V36.8224H43.1159ZM37.5722 37.698L38.5942 36.7169C38.8414 36.4826 39.0089 36.2737 39.0969 36.0881C39.1848 35.9045 39.2267 35.7082 39.2267 35.4994C39.2267 35.1575 39.1031 34.8874 38.856 34.6891C38.6089 34.4907 38.2759 34.3916 37.8612 34.3916C37.5471 34.3916 37.2643 34.4464 37.0109 34.5604C36.7575 34.6743 36.5564 34.8305 36.4057 35.0309L36.9041 35.4171C37.1114 35.1491 37.4109 35.0161 37.8005 35.0161C38.033 35.0161 38.211 35.0647 38.3303 35.1596C38.4518 35.2546 38.5105 35.3917 38.5105 35.5732C38.5105 35.6956 38.4811 35.8159 38.4204 35.9404C38.3597 36.0627 38.2445 36.2062 38.0727 36.3729L36.5523 37.8267V38.3057H39.3733V37.7001H37.568L37.5722 37.698ZM35.1553 37.6537C35.0527 37.736 34.925 37.7761 34.7721 37.7761C34.6401 37.7761 34.5417 37.7381 34.4705 37.6643C34.3993 37.5904 34.3658 37.4786 34.3658 37.3372V35.9382H35.147V35.3875H34.3658V34.7165H33.683V35.3875H33.2013V35.9382H33.683V37.3541C33.683 37.6769 33.771 37.9238 33.9448 38.0926C34.1187 38.2614 34.3679 38.3458 34.6883 38.3458C34.8161 38.3458 34.9375 38.3289 35.0527 38.2952C35.1679 38.2614 35.2642 38.2129 35.3438 38.1454L35.1532 37.6558L35.1553 37.6537ZM31.2955 37.8415C31.1217 37.8415 30.9834 37.8056 30.885 37.7318C30.7866 37.6579 30.7384 37.5588 30.7384 37.4343C30.7384 37.1726 30.9353 37.0439 31.329 37.0439H32.0348V37.3857C31.9804 37.5334 31.8861 37.6453 31.7542 37.7255C31.6201 37.8035 31.4693 37.8436 31.2976 37.8436M31.3918 35.3327C31.151 35.3327 30.9227 35.3643 30.707 35.4276C30.4934 35.4909 30.3091 35.5795 30.1541 35.6977L30.4222 36.1978C30.5311 36.1049 30.6651 36.0353 30.8243 35.9826C30.9814 35.9319 31.1426 35.9045 31.3081 35.9045C31.5489 35.9045 31.729 35.9593 31.8526 36.0691C31.9741 36.1788 32.0348 36.337 32.0348 36.5438V36.5881H31.2808C30.862 36.5881 30.5541 36.6683 30.3593 36.8287C30.1646 36.9891 30.0661 37.2001 30.0661 37.4638C30.0661 37.6326 30.1101 37.7845 30.2002 37.9175C30.2902 38.0525 30.4159 38.1559 30.5792 38.2319C30.7426 38.3078 30.9353 38.3458 31.1531 38.3458C31.3709 38.3458 31.5594 38.3121 31.7144 38.2445C31.8693 38.177 31.9887 38.0778 32.0725 37.9491V38.3078H32.7175V36.5839C32.7175 36.1661 32.6045 35.8517 32.3762 35.6449C32.1479 35.4382 31.8191 35.3327 31.3897 35.3327M28.2022 35.3327C27.9718 35.3327 27.7624 35.377 27.5739 35.4614C27.3833 35.5479 27.2283 35.6682 27.1089 35.8222C27.0105 35.6618 26.8765 35.5394 26.7068 35.4572C26.5372 35.3749 26.3424 35.3327 26.1246 35.3327C25.9257 35.3327 25.7414 35.3685 25.578 35.4382C25.4146 35.5078 25.2764 35.6091 25.1675 35.742V35.3664H24.5162V38.3078H25.1989V36.8139C25.1989 36.5269 25.268 36.3096 25.4042 36.1577C25.5403 36.0079 25.7246 35.9319 25.9592 35.9319C26.1707 35.9319 26.334 35.9973 26.445 36.1281C26.5581 36.259 26.6147 36.4531 26.6147 36.7105V38.3078H27.2974V36.8139C27.2974 36.5312 27.3666 36.3138 27.5048 36.1619C27.643 36.01 27.8273 35.9319 28.0577 35.9319C28.2692 35.9319 28.4305 35.9973 28.5436 36.1281C28.6567 36.259 28.7132 36.4531 28.7132 36.7105V38.3078H29.396V36.6219C29.396 36.1936 29.2891 35.8707 29.0734 35.6555C28.8598 35.4403 28.5666 35.3327 28.198 35.3327M22.2983 37.7571C22.047 37.7571 21.8396 37.6727 21.6784 37.5039C21.515 37.3351 21.4354 37.1114 21.4354 36.8371C21.4354 36.5628 21.5171 36.3392 21.6784 36.1703C21.8396 36.0015 22.047 35.9171 22.2983 35.9171C22.5496 35.9171 22.7569 36.0015 22.9224 36.1703C23.0857 36.3392 23.1674 36.5607 23.1674 36.8371C23.1674 37.1135 23.0857 37.3351 22.9224 37.5039C22.759 37.6727 22.5496 37.7571 22.2983 37.7571ZM22.2983 38.3458C22.5978 38.3458 22.8658 38.2804 23.1025 38.1517C23.3392 38.023 23.5235 37.8457 23.6575 37.6157C23.7894 37.3857 23.8565 37.1262 23.8565 36.835C23.8565 36.5438 23.7894 36.2864 23.6575 36.0585C23.5235 35.8306 23.3392 35.6534 23.1025 35.5247C22.8658 35.396 22.5978 35.3327 22.2983 35.3327C21.9988 35.3327 21.737 35.3981 21.5003 35.5247C21.2637 35.6534 21.0794 35.8306 20.9453 36.0585C20.8113 36.2864 20.7464 36.5438 20.7464 36.835C20.7464 37.1262 20.8134 37.3857 20.9453 37.6157C21.0773 37.8457 21.2637 38.0251 21.5003 38.1517C21.737 38.2804 22.003 38.3458 22.2983 38.3458ZM19.8333 38.3078H20.6647L19.3306 36.6008L20.5495 35.3664H19.7285L18.3128 36.6894V34.2228H17.6279V38.3099H18.3128V37.5334L18.8217 37.0481L19.8333 38.3099V38.3078ZM15.3493 37.7571L16.9578 35.8011V35.3664H14.5137V35.9171H16.0823L14.4802 37.8732V38.3078H17.0017V37.7571H15.3514H15.3493ZM12.9115 38.3458C13.1963 38.3458 13.4477 38.2867 13.6634 38.1665C13.8791 38.0462 14.0445 37.8774 14.1576 37.6558L13.632 37.3478C13.5482 37.4828 13.4435 37.5862 13.3178 37.6537C13.1922 37.7212 13.0539 37.755 12.9052 37.755C12.6455 37.755 12.434 37.6727 12.2686 37.5039C12.1031 37.3372 12.0193 37.1135 12.0193 36.835C12.0193 36.5565 12.1031 36.3328 12.2707 36.1661C12.4382 35.9994 12.6497 35.915 12.9052 35.915C13.0539 35.915 13.1922 35.9488 13.3178 36.0163C13.4435 36.0838 13.5482 36.1872 13.632 36.3223L14.1576 36.0142C14.0487 35.7948 13.8854 35.626 13.6676 35.5078C13.4519 35.3896 13.1984 35.3305 12.9094 35.3305C12.6037 35.3305 12.3314 35.396 12.0926 35.5226C11.8539 35.6513 11.6675 35.8285 11.5335 36.0564C11.3973 36.2843 11.3303 36.5417 11.3303 36.8329C11.3303 37.1241 11.3973 37.3836 11.5335 37.6136C11.6675 37.8436 11.856 38.023 12.0968 38.1496C12.3377 38.2783 12.6099 38.3437 12.9115 38.3437M9.24854 37.8415C9.07262 37.8415 8.93649 37.8056 8.83806 37.7318C8.73962 37.6579 8.69145 37.5588 8.69145 37.4343C8.69145 37.1726 8.88832 37.0439 9.28205 37.0439H9.98784V37.3857C9.93339 37.5334 9.83914 37.6453 9.70511 37.7255C9.57316 37.8035 9.42028 37.8436 9.24854 37.8436M9.34069 35.3327C9.09985 35.3327 8.87156 35.3643 8.65794 35.4276C8.44223 35.4909 8.25793 35.5795 8.10504 35.6977L8.37312 36.1978C8.48202 36.1049 8.61606 36.0353 8.77523 35.9826C8.93439 35.9319 9.09566 35.9045 9.25901 35.9045C9.49986 35.9045 9.67997 35.9593 9.80354 36.0691C9.92501 36.1788 9.98784 36.337 9.98784 36.5438V36.5881H9.23388C8.81502 36.5881 8.50715 36.6683 8.31238 36.8287C8.11761 36.9891 8.01917 37.2001 8.01917 37.4638C8.01917 37.6326 8.06316 37.7845 8.15321 37.9175C8.24327 38.0525 8.36893 38.1559 8.53228 38.2319C8.69564 38.3078 8.88832 38.3458 9.10613 38.3458C9.32394 38.3458 9.51243 38.3121 9.66741 38.2445C9.82239 38.177 9.94176 38.0778 10.0255 37.9491V38.3078H10.6706V36.5839C10.6706 36.1661 10.5575 35.8517 10.3292 35.6449C10.1009 35.4382 9.77212 35.3327 9.34279 35.3327M5.94789 36.5881H5.11644V35.0562H5.94789C6.25785 35.0562 6.49241 35.1238 6.65367 35.2546C6.81284 35.3875 6.89452 35.5753 6.89452 35.8222C6.89452 36.0691 6.81284 36.2569 6.65367 36.3898C6.49241 36.5227 6.25785 36.5881 5.94789 36.5881ZM5.9814 34.4507H4.40646V38.3057H5.11644V37.1937H5.9814C6.3123 37.1937 6.60132 37.1389 6.84845 37.0291C7.09348 36.9194 7.28407 36.7612 7.41391 36.5523C7.54586 36.3455 7.61078 36.1007 7.61078 35.8222C7.61078 35.5437 7.54586 35.2947 7.41391 35.09C7.28197 34.8853 7.09348 34.7271 6.84845 34.6173C6.60341 34.5076 6.3123 34.4528 5.9814 34.4528" fill="white"/>
        </g>
    </g>
    <defs>
        <clipPath id="clip0_318_234">
            <rect width="52" height="40.3" fill="white" transform="translate(0 0.350002)"/>
        </clipPath>
    </defs>
</svg>