<svg width="120" height="72" xmlns="http://www.w3.org/2000/svg" xmlns:xlink="http://www.w3.org/1999/xlink"><defs><path id="a" d="M.127.015H9.82v13.991H.127z"/><path id="c" d="M.127.19H9.82v13.992H.127z"/><path id="e" d="M0 71.985h119.791V.273H0z"/></defs><g fill="none" fill-rule="evenodd"><path d="M51.702 56.717c-.486-.398-.724-.934-.724-1.607 0-.682.238-1.217.724-1.616.486-.398 1.14-.596 1.965-.596.825 0 1.472.198 1.958.596.485.399.732.934.732 1.616 0 .673-.247 1.209-.732 1.607-.486.398-1.133.597-1.958.597-.824 0-1.48-.199-1.965-.597m3.391-1.607c0-.743-.555-1.217-1.426-1.217-.87 0-1.425.474-1.425 1.217 0 .742.555 1.209 1.425 1.209.871 0 1.426-.467 1.426-1.21M61.014 53.004h1.233v4.203h-1.202v-.65c-.285.466-.856.757-1.596.757-.64 0-1.109-.16-1.471-.506-.378-.366-.532-.856-.532-1.752v-2.052h1.24v2.083c0 .52.116.827.37 1.003.216.13.401.183.702.183.555 0 .986-.283 1.171-.75a1.44 1.44 0 0 0 .085-.536v-1.983ZM66.825 56.212v.995h-1.549c-.856 0-1.21-.337-1.21-1.133v-2.09h-.786v-.98h.786V51.88h1.24v1.124h1.519v.98h-1.518v1.814c0 .314.108.414.485.414h1.033ZM70.85 56.717c-.486-.398-.725-.934-.725-1.607 0-.682.24-1.217.725-1.616.485-.398 1.14-.596 1.965-.596.824 0 1.472.198 1.957.596.486.399.733.934.733 1.616 0 .673-.247 1.209-.733 1.607-.485.398-1.133.597-1.957.597-.825 0-1.48-.199-1.965-.597m3.39-1.607c0-.743-.554-1.217-1.425-1.217-.87 0-1.426.474-1.426 1.217 0 .742.555 1.209 1.426 1.209.87 0 1.426-.467 1.426-1.21M79.41 52.431h-.777c-.316 0-.44.084-.44.305v.269h1.218v.98h-1.218v3.222h-1.24v-3.223h-.694v-.98h.694v-.32c0-.82.531-1.202 1.618-1.202h.84v.949ZM86.11 56.212v.995h-1.548c-.856 0-1.21-.337-1.21-1.133v-2.09h-.787v-.98h.786V51.88h1.241v1.124h1.518v.98h-1.518v1.814c0 .314.108.414.486.414h1.032ZM87.335 57.207V51.48h1.24v2.121c.316-.436.902-.704 1.619-.704.616 0 1.102.168 1.472.505.377.36.539.864.539 1.752v2.052h-1.24v-2.082c0-.482-.109-.773-.348-.957-.192-.153-.455-.23-.74-.23-.585 0-1.047.291-1.225.758a1.547 1.547 0 0 0-.076.536v1.975h-1.241ZM94.022 56.732c-.478-.39-.717-.926-.717-1.615 0-.65.247-1.186.748-1.6.5-.413 1.14-.62 1.934-.62.779 0 1.403.184 1.88.552.486.367.725.842.725 1.416 0 .053 0 .099-.008.153 0 .054-.007.168-.015.36h-3.992c.085.589.663.934 1.565.934.647 0 1.286-.207 1.68-.544l.662.742c-.455.498-1.387.804-2.458.804-.856 0-1.518-.19-2.004-.582m.594-2.128h2.666c-.085-.482-.562-.78-1.28-.78-.731 0-1.255.29-1.386.78M102.156 57.207V51.48h1.24v2.021c.41-.398.995-.604 1.673-.604.716 0 1.294.206 1.749.612.454.406.678.941.678 1.6 0 .65-.224 1.187-.678 1.592-.455.406-1.033.613-1.75.613-.7 0-1.301-.223-1.703-.621v.513h-1.21Zm4.076-2.097c0-.727-.562-1.21-1.394-1.21-.863 0-1.441.483-1.441 1.21s.578 1.202 1.44 1.202c.84 0 1.395-.475 1.395-1.202ZM109.154 56.717c-.486-.398-.725-.934-.725-1.607 0-.682.24-1.217.725-1.616.486-.398 1.14-.596 1.965-.596.825 0 1.472.198 1.958.596.485.399.732.934.732 1.616 0 .673-.247 1.209-.732 1.607-.486.398-1.133.597-1.958.597-.824 0-1.48-.199-1.965-.597m3.391-1.607c0-.743-.555-1.217-1.426-1.217-.87 0-1.425.474-1.425 1.217 0 .742.554 1.209 1.425 1.209.87 0 1.426-.467 1.426-1.21M119.791 57.207h-1.65l-1.194-1.362-1.203 1.362h-1.541l1.989-2.12-1.95-2.082h1.626l1.148 1.277 1.141-1.277h1.541l-1.926 2.036zM63.832 46.041h-3.313v-9.456c0-1.99-.884-3.063-2.49-3.186-1-.078-2.586.157-3.737.413v12.23h-3.314V31.47s4.03-.892 7.67-.889c1.574.002 2.832.557 3.772 1.494.94.936 1.412 2.24 1.412 3.912v10.054ZM119.72 46.142a6.893 6.893 0 0 1-1.696.206c-1.868 0-3.101-.412-3.702-1.237-.48-.649-.719-1.878-.719-3.687V26.259h3.27v4.288h2.904v2.654h-2.903v8.016c0 .866.11 1.437.333 1.712.261.353.817.53 1.666.53.242 0 .524-.02.846-.059v2.742Z" fill="#424143"/><path d="M17.333 36.171s-3.88 1.49-8.667 1.49C3.88 37.66 0 36.17 0 36.17s3.88-1.49 8.666-1.49c4.787 0 8.667 1.49 8.667 1.49" fill="#FFCB04"/><g transform="translate(19.497 .258)"><mask id="b" fill="#fff"><use xlink:href="#a"/></mask><path d="M9.82 14.006s-3.438-2.3-6.115-6.163C1.03 3.979.127.015.127.015s3.438 2.299 6.115 6.162c2.676 3.864 3.578 7.829 3.578 7.829" fill="#FFCB04" mask="url(#b)"/></g><path d="M20.54 23.717s-4.145-.459-8.37-2.647c-4.227-2.187-6.934-5.276-6.934-5.276s4.143.458 8.37 2.646c4.226 2.188 6.933 5.277 6.933 5.277M28.901 43.344c2.46-.024 5.427-1.947 5.427-1.947s-6.88-2.068-6.446-8.196c1.356-10.058 9.555-17.954 19.819-19.224-1.089-.15-2.2-.228-3.332-.223-12.695.056-22.94 10.123-22.883 22.484.057 12.361 10.395 22.337 23.09 22.281a23.733 23.733 0 0 0 3.119-.224c-9.008-1.118-16.34-7.303-18.97-15.476" fill="#FFCB04"/><g transform="translate(19.497 57.803)"><mask id="d" fill="#fff"><use xlink:href="#c"/></mask><path d="M9.82.19s-3.438 2.3-6.115 6.164C1.03 10.217.127 14.182.127 14.182s3.438-2.3 6.115-6.163C8.918 4.155 9.82.19 9.82.19" fill="#FFCB04" mask="url(#d)"/></g><path d="M20.54 48.54s-4.145.46-8.37 2.648c-4.227 2.187-6.934 5.276-6.934 5.276s4.143-.459 8.37-2.647c4.226-2.188 6.933-5.276 6.933-5.276" fill="#FFCB04"/><mask id="f" fill="#fff"><use xlink:href="#e"/></mask><path fill="#424143" mask="url(#f)" d="M44.322 46.025h3.379V26.243h-3.379zM78.196 33.003c0-2.398-1.182-3.597-3.542-3.597h-4.167v7.136h4.104c1.132 0 2.015-.309 2.65-.929.636-.619.955-1.489.955-2.61m3.414 0c0 2.025-.632 3.652-1.892 4.881-1.262 1.228-2.974 1.842-5.134 1.842h-4.097v6.252H67.11V26.192h7.233c2.341 0 4.139.605 5.39 1.814 1.252 1.209 1.878 2.875 1.878 4.997M93.829 38.201c0-1.49-.35-2.67-1.044-3.542-.698-.872-1.621-1.309-2.773-1.309-1.15 0-2.074.442-2.771 1.323-.695.883-1.043 2.057-1.043 3.528 0 1.489.348 2.67 1.043 3.542.697.872 1.621 1.308 2.77 1.308 1.153 0 2.076-.436 2.774-1.308.695-.873 1.044-2.053 1.044-3.542m3.42-.015c0 2.378-.67 4.295-2.013 5.75-1.344 1.455-3.083 2.181-5.224 2.181-2.138 0-3.881-.726-5.223-2.181-1.343-1.455-2.014-3.372-2.014-5.75s.67-4.29 2.014-5.735c1.342-1.445 3.085-2.167 5.223-2.167 2.16 0 3.907.722 5.24 2.167 1.331 1.445 1.998 3.357 1.998 5.735M111.642 40.928c0 1.494-.585 2.722-1.757 3.686-1.17.964-2.716 1.444-4.632 1.444-2.99 0-5.3-.884-6.936-2.654l2.513-2.093c1.253 1.22 2.717 1.829 4.392 1.829.93 0 1.666-.182 2.212-.546.544-.364.817-.82.817-1.37 0-.63-.314-1.063-.939-1.298-.363-.138-1.332-.324-2.907-.561-1.898-.274-3.25-.688-4.06-1.238-.948-.668-1.42-1.67-1.42-3.007 0-1.357.574-2.492 1.724-3.407 1.15-.913 2.685-1.37 4.604-1.37 2.32 0 4.299.757 5.935 2.27l-1.969 2.064c-1.19-1.04-2.544-1.563-4.058-1.563-1.938 0-2.906.542-2.906 1.623 0 .628.443 1.061 1.332 1.297 1.251.195 2.493.402 3.725.618 2.886.531 4.33 1.956 4.33 4.276"/></g></svg>