<?xml version="1.0" encoding="UTF-8" standalone="no" ?>
<!DOCTYPE svg PUBLIC "-//W3C//DTD SVG 1.1//EN" "http://www.w3.org/Graphics/SVG/1.1/DTD/svg11.dtd">
<svg xmlns="http://www.w3.org/2000/svg" xmlns:xlink="http://www.w3.org/1999/xlink" version="1.1" width="1080" height="300" viewBox="0 0 1080 300" xml:space="preserve">
<desc>Created with Fabric.js 5.2.4</desc>
<defs>
</defs>
<rect x="0" y="0" width="100%" height="100%" fill="transparent"></rect>
<g transform="matrix(1 0 0 1 540 150)" id="5d878cf1-463c-4e40-84a0-3e4d0059c3c4"  >
<rect style="stroke: none; stroke-width: 1; stroke-dasharray: none; stroke-linecap: butt; stroke-dashoffset: 0; stroke-linejoin: miter; stroke-miterlimit: 4; fill: rgb(255,255,255); fill-rule: nonzero; opacity: 1;" vector-effect="non-scaling-stroke"  x="-540" y="-150" rx="0" ry="0" width="1080" height="300" />
</g>
<g transform="matrix(Infinity NaN NaN Infinity 0 0)" id="b0af466f-6f71-40cf-83d6-a05158dcafe1"  >
</g>
<g transform="matrix(10.58 0 0 10.58 556.28 150)"  >
<g style=""   >
		<g transform="matrix(1 0 0 1 0.01 -0.02)"  >
<rect style="stroke: none; stroke-width: 1; stroke-dasharray: none; stroke-linecap: butt; stroke-dashoffset: 0; stroke-linejoin: miter; stroke-miterlimit: 4; fill: rgb(228,31,19); fill-rule: nonzero; opacity: 1;" vector-effect="non-scaling-stroke"  x="-56.695" y="-15.23" rx="0" ry="0" width="113.39" height="30.46" />
</g>
		<g transform="matrix(1 0 0 1 -2.73 8.39)"  >
<path style="stroke: none; stroke-width: 1; stroke-dasharray: none; stroke-linecap: butt; stroke-dashoffset: 0; stroke-linejoin: miter; stroke-miterlimit: 4; fill: rgb(255,255,255); fill-rule: nonzero; opacity: 1;" vector-effect="non-scaling-stroke"  transform=" translate(-53.95, -23.65)" d="M 53.29 21.38 L 52.38 25.93 L 51.54 25.93 L 52.449999999999996 21.38 L 53.29 21.38 z M 56.36 21.38 L 53.839999999999996 23.59 L 55.69 25.93 L 54.589999999999996 25.93 L 53.06999999999999 23.8 L 53.17999999999999 23.25 L 55.309999999999995 21.37 L 56.36 21.37 z" stroke-linecap="round" />
</g>
		<g transform="matrix(1 0 0 1 2.02 8.42)"  >
<path style="stroke: none; stroke-width: 1; stroke-dasharray: none; stroke-linecap: butt; stroke-dashoffset: 0; stroke-linejoin: miter; stroke-miterlimit: 4; fill: rgb(255,255,255); fill-rule: nonzero; opacity: 1;" vector-effect="non-scaling-stroke"  transform=" translate(-58.7, -23.67)" d="M 56.5 24.14 L 57.05 21.380000000000003 L 57.89 21.380000000000003 L 57.34 24.14 C 57.2 24.87 57.49 25.23 58.24 25.23 C 58.99 25.23 59.43 24.87 59.57 24.14 L 60.12 21.380000000000003 L 60.96 21.380000000000003 L 60.410000000000004 24.14 C 60.17 25.35 59.39 25.96 58.09 25.96 C 56.79 25.96 56.26 25.35 56.5 24.14 z" stroke-linecap="round" />
</g>
		<g transform="matrix(1 0 0 1 6.42 8.41)"  >
<path style="stroke: none; stroke-width: 1; stroke-dasharray: none; stroke-linecap: butt; stroke-dashoffset: 0; stroke-linejoin: miter; stroke-miterlimit: 4; fill: rgb(255,255,255); fill-rule: nonzero; opacity: 1;" vector-effect="non-scaling-stroke"  transform=" translate(-63.1, -23.66)" d="M 61.02 25.92 L 61.93 21.380000000000003 L 64 21.380000000000003 C 64.93 21.380000000000003 65.31 21.790000000000003 65.15 22.6 C 65.02000000000001 23.240000000000002 64.57000000000001 23.700000000000003 63.790000000000006 23.970000000000002 L 64.84 25.94 L 63.86000000000001 25.94 L 62.870000000000005 23.96 L 62.95 23.580000000000002 C 63.730000000000004 23.44 64.17 23.130000000000003 64.27 22.64 C 64.33999999999999 22.3 64.17999999999999 22.14 63.809999999999995 22.14 L 62.65 22.14 L 61.89 25.94 L 61.02 25.94 z" stroke-linecap="round" />
</g>
		<g transform="matrix(1 0 0 1 9.39 8.41)"  >
<path style="stroke: none; stroke-width: 1; stroke-dasharray: none; stroke-linecap: butt; stroke-dashoffset: 0; stroke-linejoin: miter; stroke-miterlimit: 4; fill: rgb(255,255,255); fill-rule: nonzero; opacity: 1;" vector-effect="non-scaling-stroke"  transform=" translate(-66.08, -23.66)" d="M 66.95 21.38 L 66.04 25.93 L 65.2 25.93 L 66.11 21.38 L 66.95 21.38 z" stroke-linecap="round" />
</g>
		<g transform="matrix(1 0 0 1 12.32 8.39)"  >
<path style="stroke: none; stroke-width: 1; stroke-dasharray: none; stroke-linecap: butt; stroke-dashoffset: 0; stroke-linejoin: miter; stroke-miterlimit: 4; fill: rgb(255,255,255); fill-rule: nonzero; opacity: 1;" vector-effect="non-scaling-stroke"  transform=" translate(-69.01, -23.64)" d="M 71.02 21.38 L 70.86999999999999 22.099999999999998 L 68.6 22.099999999999998 L 68.36999999999999 23.249999999999996 L 70.53999999999999 23.249999999999996 L 70.38999999999999 23.999999999999996 L 68.20999999999998 23.999999999999996 L 67.96999999999998 25.189999999999998 L 70.29999999999998 25.189999999999998 L 70.14999999999998 25.919999999999998 L 67 25.919999999999998 L 67.91 21.369999999999997 L 71.02 21.369999999999997 z" stroke-linecap="round" />
</g>
		<g transform="matrix(1 0 0 1 16.33 8.41)"  >
<path style="stroke: none; stroke-width: 1; stroke-dasharray: none; stroke-linecap: butt; stroke-dashoffset: 0; stroke-linejoin: miter; stroke-miterlimit: 4; fill: rgb(255,255,255); fill-rule: nonzero; opacity: 1;" vector-effect="non-scaling-stroke"  transform=" translate(-73.02, -23.66)" d="M 70.94 25.92 L 71.85 21.380000000000003 L 73.91999999999999 21.380000000000003 C 74.85 21.380000000000003 75.22999999999999 21.790000000000003 75.07 22.6 C 74.94 23.240000000000002 74.49 23.700000000000003 73.71 23.970000000000002 L 74.75999999999999 25.94 L 73.77999999999999 25.94 L 72.78999999999999 23.96 L 72.86999999999999 23.580000000000002 C 73.64999999999999 23.44 74.08999999999999 23.130000000000003 74.18999999999998 22.64 C 74.25999999999998 22.3 74.09999999999998 22.14 73.72999999999999 22.14 L 72.57 22.14 L 71.80999999999999 25.94 L 70.94 25.94 z" stroke-linecap="round" />
</g>
		<g transform="matrix(1 0 0 1 -45.58 -3.45)"  >
<path style="stroke: none; stroke-width: 1; stroke-dasharray: none; stroke-linecap: butt; stroke-dashoffset: 0; stroke-linejoin: miter; stroke-miterlimit: 4; fill: rgb(255,255,255); fill-rule: nonzero; opacity: 1;" vector-effect="non-scaling-stroke"  transform=" translate(-11.11, -11.8)" d="M 4.55 19.05 L 7.449999999999999 4.5600000000000005 L 13.93 4.5600000000000005 C 16.89 4.5600000000000005 18.09 5.920000000000001 17.55 8.64 C 16.96 11.59 14.58 13.38 10.420000000000002 14 L 10.510000000000002 11.61 C 13.030000000000001 11.17 14.440000000000001 10.209999999999999 14.73 8.719999999999999 C 14.97 7.519999999999999 14.48 6.919999999999999 13.280000000000001 6.919999999999999 L 9.66 6.919999999999999 L 7.24 19.05 L 4.55 19.05 z" stroke-linecap="round" />
</g>
		<g transform="matrix(1 0 0 1 -33.97 -1.53)"  >
<path style="stroke: none; stroke-width: 1; stroke-dasharray: none; stroke-linecap: butt; stroke-dashoffset: 0; stroke-linejoin: miter; stroke-miterlimit: 4; fill: rgb(255,255,255); fill-rule: nonzero; opacity: 1;" vector-effect="non-scaling-stroke"  transform=" translate(-22.72, -13.73)" d="M 22.06 17.02 C 23.709999999999997 17.02 24.77 15.91 25.209999999999997 13.69 C 25.639999999999997 11.52 25.029999999999998 10.44 23.379999999999995 10.44 C 21.719999999999995 10.44 20.679999999999996 11.52 20.249999999999996 13.69 C 19.8 15.91 20.4 17.02 22.06 17.02 M 17.55 13.73 C 18.27 10.120000000000001 20.36 8.31 23.8 8.31 C 27.240000000000002 8.31 28.61 10.120000000000001 27.880000000000003 13.73 C 27.160000000000004 17.34 25.070000000000004 19.14 21.630000000000003 19.14 C 18.2 19.14 16.84 17.33 17.55 13.73" stroke-linecap="round" />
</g>
		<g transform="matrix(1 0 0 1 -22.87 -1.53)"  >
<path style="stroke: none; stroke-width: 1; stroke-dasharray: none; stroke-linecap: butt; stroke-dashoffset: 0; stroke-linejoin: miter; stroke-miterlimit: 4; fill: rgb(255,255,255); fill-rule: nonzero; opacity: 1;" vector-effect="non-scaling-stroke"  transform=" translate(-33.82, -13.73)" d="M 36.76 17.73 C 35.71 18.61 34.54 19.05 33.25 19.05 C 29.87 19.05 28.55 17.240000000000002 29.27 13.63 C 29.97 10.15 32.14 8.41 35.78 8.41 C 36.79 8.41 37.72 8.51 38.56 8.71 L 38.13 10.84 C 37.29 10.64 36.43 10.54 35.56 10.54 C 33.57 10.54 32.370000000000005 11.569999999999999 31.950000000000003 13.629999999999999 C 31.51 15.829999999999998 32.150000000000006 16.919999999999998 33.870000000000005 16.919999999999998 C 35.02 16.919999999999998 36.120000000000005 16.479999999999997 37.17 15.599999999999998 L 36.76 17.73 z" stroke-linecap="round" />
</g>
		<g transform="matrix(1 0 0 1 -13.66 -1.53)"  >
<polygon style="stroke: none; stroke-width: 1; stroke-dasharray: none; stroke-linecap: butt; stroke-dashoffset: 0; stroke-linejoin: miter; stroke-miterlimit: 4; fill: rgb(255,255,255); fill-rule: nonzero; opacity: 1;" vector-effect="non-scaling-stroke"  points="-2.78,-5.32 5.12,-5.32 4.69,-3.19 -1.74,3.29 3.19,3.29 2.79,5.32 -5.11,5.32 -4.71,3.29 1.7,-3.19 -3.21,-3.19 " />
</g>
		<g transform="matrix(1 0 0 1 -4.86 -2.39)"  >
<path style="stroke: none; stroke-width: 1; stroke-dasharray: none; stroke-linecap: butt; stroke-dashoffset: 0; stroke-linejoin: miter; stroke-miterlimit: 4; fill: rgb(255,255,255); fill-rule: nonzero; opacity: 1;" vector-effect="non-scaling-stroke"  transform=" translate(-51.82, -12.87)" d="M 50.57 6.69 L 52.56 6.69 L 52.620000000000005 8.41 L 55.09 8.41 L 54.660000000000004 10.54 L 52.480000000000004 10.54 L 51.50000000000001 15.43 C 51.300000000000004 16.419999999999998 51.64000000000001 16.919999999999998 52.49000000000001 16.919999999999998 L 53.38000000000001 16.919999999999998 L 52.95000000000001 19.049999999999997 L 50.76000000000001 19.049999999999997 C 48.98000000000001 19.049999999999997 48.280000000000015 18.089999999999996 48.66000000000001 16.179999999999996 L 50.57 6.69 z" stroke-linecap="round" />
</g>
		<g transform="matrix(1 0 0 1 3.7 -1.53)"  >
<path style="stroke: none; stroke-width: 1; stroke-dasharray: none; stroke-linecap: butt; stroke-dashoffset: 0; stroke-linejoin: miter; stroke-miterlimit: 4; fill: rgb(255,255,255); fill-rule: nonzero; opacity: 1;" vector-effect="non-scaling-stroke"  transform=" translate(-60.38, -13.73)" d="M 58.26 12.81 L 60.94 12.81 C 62.05 12.81 62.69 12.43 62.849999999999994 11.67 C 62.99999999999999 10.91 62.419999999999995 10.52 61.129999999999995 10.52 C 59.64 10.52 58.69 11.28 58.26 12.81 M 65.45 11.59 C 65.02 13.71 63.38 14.77 60.53 14.77 L 57.870000000000005 14.77 C 57.59 16.2 58.38 16.919999999999998 60.24 16.919999999999998 C 61.65 16.919999999999998 62.980000000000004 16.479999999999997 64.23 15.599999999999998 L 63.800000000000004 17.729999999999997 C 62.690000000000005 18.609999999999996 61.290000000000006 19.049999999999997 59.61000000000001 19.049999999999997 C 56.09 19.049999999999997 54.690000000000005 17.24 55.42000000000001 13.609999999999996 C 56.12000000000001 10.139999999999995 58.16000000000001 8.409999999999997 61.56000000000001 8.409999999999997 C 64.58 8.41 65.88 9.47 65.45 11.59" stroke-linecap="round" />
</g>
		<g transform="matrix(1 0 0 1 14.51 -1.53)"  >
<polygon style="stroke: none; stroke-width: 1; stroke-dasharray: none; stroke-linecap: butt; stroke-dashoffset: 0; stroke-linejoin: miter; stroke-miterlimit: 4; fill: rgb(255,255,255); fill-rule: nonzero; opacity: 1;" vector-effect="non-scaling-stroke"  points="-1.48,0 -4.41,-5.32 -1.52,-5.32 0.3,-1.9 3.45,-5.32 6.53,-5.32 1.5,0 4.42,5.32 1.53,5.32 -0.28,1.89 -3.44,5.32 -6.53,5.32 " />
</g>
		<g transform="matrix(1 0 0 1 36.13 -4.87)"  >
<path style="stroke: none; stroke-width: 1; stroke-dasharray: none; stroke-linecap: butt; stroke-dashoffset: 0; stroke-linejoin: miter; stroke-miterlimit: 4; fill: rgb(255,255,255); fill-rule: nonzero; opacity: 1;" vector-effect="non-scaling-stroke"  transform=" translate(-92.82, -10.39)" d="M 78.13 16.34 L 76.53999999999999 13.53 L 85.28999999999999 4.4399999999999995 L 109.1 4.51 C 109.1 4.51 101 4.84 96.56 7.08 L 86.73 7.08 L 78.13 16.34 z" stroke-linecap="round" />
</g>
		<g transform="matrix(1 0 0 1 32.2 -1.91)"  >
<path style="stroke: none; stroke-width: 1; stroke-dasharray: none; stroke-linecap: butt; stroke-dashoffset: 0; stroke-linejoin: miter; stroke-miterlimit: 4; fill: rgb(255,255,255); fill-rule: nonzero; opacity: 1;" vector-effect="non-scaling-stroke"  transform=" translate(-88.89, -13.34)" d="M 86.96 7.65 L 78.41999999999999 16.89 L 79.63999999999999 19.060000000000002 L 83.57999999999998 19.060000000000002 C 83.68999999999998 19.060000000000002 84.78999999999998 18.980000000000004 86.28999999999998 17.480000000000004 C 87.89999999999998 15.760000000000003 90.85999999999999 11.590000000000003 91.74999999999997 10.700000000000003 C 92.63999999999997 9.810000000000002 95.13999999999997 8.210000000000003 99.36999999999998 7.620000000000003 C 93.18 7.63 86.96 7.65 86.96 7.65" stroke-linecap="round" />
</g>
</g>
</g>
</svg>