<svg xmlns="http://www.w3.org/2000/svg" width="400" height="150" viewBox="0 0 400 150" xml:space="preserve"><rect width="100%" height="100%" fill="transparent"/><g transform="translate(200 75)"/><g transform="matrix(0 0)"/><rect style="stroke:none;stroke-width:1;stroke-dasharray:none;stroke-linecap:butt;stroke-dashoffset:0;stroke-linejoin:miter;stroke-miterlimit:4;fill:#fff;fill-opacity:0;fill-rule:nonzero;opacity:1" vector-effect="non-scaling-stroke" x="-50" y="-50" rx="0" ry="0" width="100" height="100" fill="none" transform="matrix(.75 0 0 .75 51.785 56.73)"/><path style="stroke:#000;stroke-width:0;stroke-dasharray:none;stroke-linecap:butt;stroke-dashoffset:0;stroke-linejoin:miter;stroke-miterlimit:4;fill:#c31325;fill-rule:nonzero;opacity:1" vector-effect="non-scaling-stroke" transform="matrix(.45 0 0 .45 6.355 -125.938)" d="M24.723 390.576v176.746h57.761v-61.73h8.614c6.86 0 12.349.236 16.551.675h.676c4.428.44 8.448 1.088 11.99 2.196 6.632 2.435 10.175 11.755 11.063 28.12.659 16.589 1.764 26.753 2.872 30.739h58.605v-5.067c-2.439 0-4.02-1.392-4.898-4.053-.888-2.425-1.267-7.064-1.267-13.258V531.01c0-13.049-1.543-22.726-4.644-29.134-3.098-6.414-11.498-12.454-24.996-17.987 8.85-2.212 15.923-6.803 21.45-14.102 5.31-7.3 8.19-16.88 8.19-29.05 0-15.703-4.492-27.35-13.342-34.876-11.721-10.174-32.69-15.285-62.997-15.285zm351.548 0v176.746h45.517v-18.156h.929c3.982 7.518 9.238 13.26 15.875 16.805 2.872 1.546 6.027 2.665 9.12 3.546 4.422 1.102 8.813 1.774 13.68 1.774 16.366 0 29.655-4.621 39.606-13.68 12.61-11.735 19-30.327 19-55.988 0-20.79-5.695-37.427-17.649-49.823-10.616-11.06-23.233-16.552-37.832-16.552-6.42 0-11.937.642-16.804 2.196-1.335.436-2.638.915-3.97 1.351-5.529 2.435-11.102 6.813-16.635 13.005v-61.224H376.27zM82.484 431.702h27.867c6.415 0 11.927 1.543 16.13 4.644 4.202 3.098 6.417 7.51 6.417 13.258 0 5.09-1.543 9.083-4.644 11.738-3.98 3.537-10.867 5.357-20.605 5.574H82.485v-35.214zm196.168 3.546c-22.787 1.102-39.328 5.297-50.16 13.258-9.297 6.86-14.188 16.842-14.188 29.894h49.317c.442-4.651 2.226-7.972 5.32-9.964 2.438-1.328 5.509-2.23 9.711-2.45.885-.226 2.02-.253 3.124-.253 5.317 0 9.286 1.135 12.16 3.125 2.652 1.996 3.97 4.641 3.97 7.516 0 3.982-1.497 6.691-4.814 8.022-1.99.659-6.701 1.486-14.44 3.04-6.195.885-14.163 2.253-23.898 3.8-18.362 2.652-31.154 7.698-38.676 14.778-6.415 6.415-9.543 15.08-9.543 25.925 0 13.93 5.08 24.51 15.707 31.583 7.742 5.094 17.507 7.769 28.796 7.769 9.955 0 19.26-1.318 27.445-3.97l.169-.253c7.965-2.65 15.518-7.262 22.378-13.68l2.449 13.934h52.61v-2.45c-3.324-2.654-5.25-5.069-5.911-6.84-.666-1.769-.93-5.57-.93-11.315v-62.828c0-16.811-3.793-28.975-11.315-36.058-9.07-8.404-25.658-12.583-49.992-12.583zm329.846 0c-23.226 0-41.534 7.067-54.806 21.45-11.947 12.822-17.987 28.576-17.987 47.374 0 20.351 6.655 36.727 19.93 48.894 13.045 12.163 31.021 18.325 53.37 18.325h.844c20.797 0 37.646-4.621 50.245-13.68 10.4-7.53 16.97-17.333 19.845-29.05h-48.894c-3.757 7.741-10.181 11.57-19.254 11.57h-1.942c-5.972-.439-11.032-2.434-15.454-6.419-5.303-4.648-8.022-11.126-8.022-19.085h98.041c0-21.013-5.576-38.652-16.635-53.032-13.046-17.254-32.488-26.13-57.93-26.347zm185.612 0c-8.854 0-16.602 1.73-23.899 5.49-7.076 3.543-13.734 9.778-19.929 18.409v-20.605h-46.445v128.78h50.92v-65.7c0-9.954 1.957-17.29 5.49-21.28 3.104-3.313 7.975-4.813 14.609-4.813 6.418 0 10.89 1.76 13.765 5.742 2.661 3.756 3.969 9.688 3.969 17.65v68.4h51.258v-77.436c0-19.244-5.08-33.61-15.031-42.899-8.408-7.961-19.882-11.738-34.707-11.738zM609.849 466.24h.675c5.966 0 11.228 2.182 15.876 6.165 4.648 4.205 7.094 9.549 7.094 15.96h-47.121c0-14.603 7.762-21.909 23.476-22.125zm-162.136 8.191h.422c7.31 0 12.873 3.304 16.636 9.711 3.104 5.544 4.644 12.191 4.644 19.93 0 8.627-1.807 15.494-4.898 21.027-3.773 6.195-9.505 9.289-16.804 9.289-7.742 0-13.721-3.767-17.48-11.063-2.652-5.536-3.97-12.018-3.97-19.76 0-7.965 1.5-14.535 4.814-19.845 3.763-5.975 9.333-9.066 16.636-9.289zM297.906 510.49v4.644c0 7.968-1.93 14.598-5.912 19.676-3.317 4.212-7.816 6.597-13.342 7.262-1.33.223-2.635.254-3.969.254-4.428 0-8.184-.94-11.062-2.703-2.875-1.993-4.392-4.617-4.392-7.938 0-6.63 4.645-11.315 13.934-14.187 1.55-.442 3.276-.854 5.489-1.52 4.86-1.32 11.292-3.053 19.254-5.489z"/></svg>